M48
;Layer_Color=9474304
;FILE_FORMAT=4:4
METRIC,LZ
;TYPE=PLATED
T1F00S00C0.8000
T2F00S00C0.8128
T3F00S00C0.8350
T5F00S00C1.5000
T6F00S00C3.0000
%
T01
X009149Y004187
Y004695
Y005203
Y006219
Y0069302
X007849
Y006219
Y005203
Y004695
Y004187
T02
X0094642Y0039838
X0097182
X0099722
Y0047712
X0097182
X0094642
Y005457
X0097182
X0099722
Y006219
X0097182
X0094642
T03
X0062035Y003175
Y003429
Y003683
Y003937
X0084895
Y003683
Y003429
Y003175
Y004191
Y004445
Y004699
Y004953
Y005207
Y005461
Y005715
Y005969
Y006223
Y006477
Y006731
X0062035
Y006477
Y006223
Y005969
Y005715
Y005461
Y005207
Y004953
Y004699
Y004445
Y004191
T05
X0054732Y0039116
X0109588Y0037398
Y0033334
Y0043748
Y0047812
Y0054162
Y0058226
Y006483
Y0068894
Y0075244
Y0079308
X0054796Y004515
T06
X00399Y00339
X0100752Y0032884
X00399Y00809
X0094388
M30
