M48
;Layer_Color=9474304
;FILE_FORMAT=4:4
METRIC,LZ
;TYPE=PLATED
T1F00S00C0.7590
T2F00S00C0.8000
T3F00S00C0.8128
T4F00S00C0.8500
T5F00S00C0.9000
T6F00S00C0.9800
T7F00S00C1.0500
T8F00S00C1.2300
T9F00S00C1.3200
T10F00S00C1.3970
T11F00S00C2.0000
T12F00S00C3.1000
%
T01
X0028956Y0006096
Y0008636
Y0011176
Y0013716
Y0016256
Y0018796
X0044514
Y0016256
Y0013716
Y0011176
Y0008636
Y0006096
Y0021336
Y0023876
Y0026416
Y0028956
Y0031496
Y0034036
Y0036576
Y0039116
Y0041656
Y0044196
Y0046736
Y0049276
Y0051816
Y0054356
X0028956
Y0051816
Y0049276
Y0046736
Y0044196
Y0041656
Y0039116
Y0036576
Y0034036
Y0031496
Y0028956
Y0026416
Y0023876
Y0021336
T02
X0056134Y0040426
Y0045426
X0061976
Y0040426
T03
X0054356Y0026416
Y0028956
Y0031496
T04
X005715Y0006096
X004953
X0025146Y0004826
X0022352Y0002286
X0017526Y0004826
X0018288Y0013208
X0025908
X0022606Y0018288
X0014986
X0014732Y0002286
X0018288Y0023368
X0020066Y0025654
X0023368
X0025908Y0023368
X0023368Y0033274
X0020066
X0018542Y0038608
X0026162
X0049784Y0036576
Y0028956
T05
X0062484Y003048
X0065024
Y003429
X0062484
T06
X006477Y0006096
X006731
T07
X0069088Y0019304
Y0033404
Y004445
Y005855
T08
X0056896Y0052578
X0059436
X0061976
T09
X0076577Y0020162
Y0032162
Y0045562
Y0057562
T10
X0074577Y0026162
X0088777Y0032162
Y0020162
Y0045562
Y0057562
X0074577Y0051562
T11
X0097536Y0006096
Y0012446
X0013716Y0013208
X0007112
Y0023368
X0013716
Y0030988
X0007112
Y0038608
X0013716
X0016002Y005334
Y0059182
X0021844Y0058928
Y005334
X002286Y0044704
X001778
X0097536Y0040386
Y0051562
Y0027178
Y0020066
X006223Y0061976
X0057404
T12
X008763Y000508
X000635
X010033Y005969
X000635
M30
