G04 Layer_Color=16711935*
%FSLAX44Y44*%
%MOMM*%
G71*
G01*
G75*
%ADD34C,1.6032*%
%ADD35C,1.6832*%
%ADD36C,4.2032*%
%ADD37C,1.7782*%
%ADD38R,1.7782X1.7782*%
%ADD39R,1.3622X1.3622*%
%ADD40C,1.3622*%
%ADD41C,2.4892*%
%ADD42C,2.1832*%
%ADD43C,4.0132*%
%ADD44C,1.8796*%
%ADD45C,2.0482*%
%ADD46R,2.0482X2.0482*%
%ADD47C,1.7032*%
%ADD48R,1.7032X1.7032*%
%ADD49R,1.5532X1.5532*%
%ADD50C,1.5532*%
D34*
X495300Y60960D02*
D03*
X571500D02*
D03*
X182880Y132080D02*
D03*
X259080D02*
D03*
X149860Y182880D02*
D03*
X226060D02*
D03*
X182880Y233680D02*
D03*
X259080D02*
D03*
X497840Y365760D02*
D03*
Y289560D02*
D03*
X185420Y386080D02*
D03*
X261620D02*
D03*
X175260Y48260D02*
D03*
X251460D02*
D03*
X147320Y22860D02*
D03*
X223520D02*
D03*
X233680Y332740D02*
D03*
Y256540D02*
D03*
X200660Y332740D02*
D03*
Y256540D02*
D03*
D35*
X673100Y60960D02*
D03*
X647700D02*
D03*
D36*
X71120Y132080D02*
D03*
X137160D02*
D03*
X71120Y233680D02*
D03*
X137160D02*
D03*
X71120Y309880D02*
D03*
X137160D02*
D03*
X71120Y386080D02*
D03*
X137160D02*
D03*
X975360Y403860D02*
D03*
Y515620D02*
D03*
Y60960D02*
D03*
Y124460D02*
D03*
X574040Y619760D02*
D03*
X622300D02*
D03*
X975360Y200660D02*
D03*
Y271780D02*
D03*
X228600Y447040D02*
D03*
X177800D02*
D03*
X160020Y533400D02*
D03*
Y591820D02*
D03*
X218440Y533400D02*
D03*
Y589280D02*
D03*
X63500Y596900D02*
D03*
X1003300D02*
D03*
X876300Y50800D02*
D03*
X63500D02*
D03*
D37*
X690880Y444500D02*
D03*
Y193040D02*
D03*
D38*
Y585500D02*
D03*
Y334040D02*
D03*
D39*
X289560Y543560D02*
D03*
D40*
Y518160D02*
D03*
Y492760D02*
D03*
Y467360D02*
D03*
Y441960D02*
D03*
Y416560D02*
D03*
Y391160D02*
D03*
Y365760D02*
D03*
Y340360D02*
D03*
Y314960D02*
D03*
Y289560D02*
D03*
Y264160D02*
D03*
Y238760D02*
D03*
Y213360D02*
D03*
Y187960D02*
D03*
Y162560D02*
D03*
Y137160D02*
D03*
Y111760D02*
D03*
Y86360D02*
D03*
Y60960D02*
D03*
X445140D02*
D03*
Y86360D02*
D03*
Y111760D02*
D03*
Y137160D02*
D03*
Y162560D02*
D03*
Y187960D02*
D03*
Y213360D02*
D03*
Y238760D02*
D03*
Y264160D02*
D03*
Y289560D02*
D03*
Y314960D02*
D03*
Y340360D02*
D03*
Y365760D02*
D03*
Y391160D02*
D03*
Y416560D02*
D03*
Y441960D02*
D03*
Y467360D02*
D03*
Y492760D02*
D03*
Y518160D02*
D03*
Y543560D02*
D03*
D41*
X887770Y575620D02*
D03*
Y455620D02*
D03*
X745770Y515620D02*
D03*
X887770Y321620D02*
D03*
Y201620D02*
D03*
D42*
X765770Y455620D02*
D03*
Y575620D02*
D03*
Y201620D02*
D03*
Y321620D02*
D03*
D43*
X745770Y261620D02*
D03*
D44*
X543560Y314960D02*
D03*
Y289560D02*
D03*
Y264160D02*
D03*
D45*
X568960Y525780D02*
D03*
X594360D02*
D03*
D46*
X619760D02*
D03*
D47*
X624840Y342900D02*
D03*
Y304800D02*
D03*
D48*
X650240Y342900D02*
D03*
Y304800D02*
D03*
D49*
X561340Y454260D02*
D03*
X619760D02*
D03*
D50*
X561340Y404260D02*
D03*
X619760D02*
D03*
M02*
