M48
;Layer_Color=9474304
;FILE_FORMAT=4:2
METRIC,LZ
;TYPE=PLATED
T1F00S00C0.70
T2F00S00C0.81
T3F00S00C0.85
T5F00S00C1.10
T6F00S00C1.20
T7F00S00C1.24
T8F00S00C1.32
T9F00S00C1.40
;TYPE=NON_PLATED
T10F00S00C3.10
%
T01
X001067Y003807
Y004117
Y004674
Y004984
T02
X004242Y000559
Y000813
Y001067
X005004
Y000813
Y000559
T03
X001651Y002946
X004902Y003023
X005359Y003073
X00447Y003658
Y002388
X000381Y002946
X001803Y004089
Y005359
X004902Y004293
X005359Y004343
T05
X008179Y000614
Y001114
X008153Y001934
Y002434
X003785Y002515
Y002261
Y002007
Y002769
Y003023
Y003277
Y003531
Y003785
X002261
Y003531
Y003277
Y003023
Y002769
Y002515
Y002261
Y002007
Y004039
Y004293
Y004547
Y004801
Y005055
Y005309
Y005563
X003785
Y005309
Y005055
Y004801
Y004547
Y004293
Y004039
T06
X008224Y003658
Y003912
Y004166
Y00442
Y004674
Y004928
X006045
Y004674
Y00442
Y004166
Y003912
Y005182
T07
X000356Y00442
Y004674
Y004928
T08
X005753Y001076
Y002276
T09
X005553Y001676
X006973Y001076
Y002276
T10
X00696Y000533
X001016
X000813Y005588
X00696
M30
