G04 Layer_Color=255*
%FSLAX42Y42*%
%MOMM*%
G71*
G01*
G75*
%ADD12C,1.80*%
%ADD13R,1.80X1.80*%
%ADD14R,1.86X1.86*%
%ADD15C,1.86*%
%ADD16R,1.65X1.65*%
%ADD17C,1.65*%
%ADD18O,2.00X4.00*%
%ADD19O,2.00X4.50*%
%ADD20O,4.00X2.00*%
%ADD21C,1.98*%
%ADD22C,2.29*%
%ADD23C,1.60*%
%ADD24R,1.60X1.60*%
%ADD25O,2.64X1.32*%
%ADD26C,2.00*%
%ADD27C,1.40*%
%ADD28C,1.30*%
D12*
X2261Y2007D02*
D03*
Y2515D02*
D03*
Y2261D02*
D03*
Y3023D02*
D03*
Y2769D02*
D03*
Y3531D02*
D03*
Y3277D02*
D03*
Y4039D02*
D03*
Y3785D02*
D03*
Y4547D02*
D03*
Y4293D02*
D03*
Y4801D02*
D03*
Y5055D02*
D03*
Y5309D02*
D03*
X3785Y2007D02*
D03*
Y2261D02*
D03*
Y2515D02*
D03*
Y2769D02*
D03*
Y3023D02*
D03*
Y3277D02*
D03*
Y3531D02*
D03*
Y3785D02*
D03*
Y4039D02*
D03*
Y4293D02*
D03*
Y4547D02*
D03*
Y4801D02*
D03*
Y5055D02*
D03*
Y5309D02*
D03*
Y5563D02*
D03*
D13*
X2261D02*
D03*
D14*
X356Y4928D02*
D03*
D15*
Y4674D02*
D03*
Y4420D02*
D03*
D16*
X8153Y1934D02*
D03*
X8179Y614D02*
D03*
D17*
X8153Y2434D02*
D03*
X8179Y1114D02*
D03*
D18*
X622Y2007D02*
D03*
D19*
X1232D02*
D03*
D20*
X902Y1511D02*
D03*
D21*
X5753Y2276D02*
D03*
Y1076D02*
D03*
D22*
X5553Y1676D02*
D03*
X6973Y1076D02*
D03*
Y2276D02*
D03*
D23*
X8224Y3658D02*
D03*
Y3912D02*
D03*
Y4166D02*
D03*
Y4420D02*
D03*
Y4674D02*
D03*
Y4928D02*
D03*
X6045Y3912D02*
D03*
Y4166D02*
D03*
Y4420D02*
D03*
Y4674D02*
D03*
Y4928D02*
D03*
D24*
Y5182D02*
D03*
D25*
X4242Y1067D02*
D03*
Y813D02*
D03*
X5004D02*
D03*
Y1067D02*
D03*
X4242Y559D02*
D03*
X5004D02*
D03*
D26*
X813Y5588D02*
D03*
X6960D02*
D03*
Y533D02*
D03*
X1016D02*
D03*
D27*
X381Y2946D02*
D03*
X1651D02*
D03*
X1803Y4089D02*
D03*
Y5359D02*
D03*
X4902Y3023D02*
D03*
Y4293D02*
D03*
X4470Y3658D02*
D03*
Y2388D02*
D03*
X5359Y3073D02*
D03*
Y4343D02*
D03*
D28*
X1067Y4117D02*
D03*
Y3807D02*
D03*
Y4674D02*
D03*
Y4984D02*
D03*
M02*
