G04 Layer_Color=2752767*
%FSLAX42Y42*%
%MOMM*%
G71*
G01*
G75*
%ADD53C,0.05*%
%ADD54C,0.07*%
%ADD55C,0.03*%
D53*
X2240Y1986D02*
Y2027D01*
X2281D01*
Y1986D01*
X2240D01*
Y2494D02*
Y2535D01*
X2281D01*
Y2494D01*
X2240D01*
Y2240D02*
Y2281D01*
X2281D01*
Y2240D01*
X2240D01*
Y3002D02*
Y3043D01*
X2281D01*
Y3002D01*
X2240D01*
Y2748D02*
Y2789D01*
X2281D01*
Y2748D01*
X2240D01*
Y3510D02*
Y3551D01*
X2281D01*
Y3510D01*
X2240D01*
Y3256D02*
Y3297D01*
X2281D01*
Y3256D01*
X2240D01*
Y4018D02*
Y4059D01*
X2281D01*
Y4018D01*
X2240D01*
Y3764D02*
Y3805D01*
X2281D01*
Y3764D01*
X2240D01*
Y4526D02*
Y4567D01*
X2281D01*
Y4526D01*
X2240D01*
Y4272D02*
Y4313D01*
X2281D01*
Y4272D01*
X2240D01*
Y4780D02*
Y4821D01*
X2281D01*
Y4780D01*
X2240D01*
Y5034D02*
Y5075D01*
X2281D01*
Y5034D01*
X2240D01*
Y5288D02*
Y5329D01*
X2281D01*
Y5288D01*
X2240D01*
Y5542D02*
Y5583D01*
X2281D01*
Y5542D01*
X2240D01*
X3764Y1986D02*
Y2027D01*
X3805D01*
Y1986D01*
X3764D01*
Y2240D02*
Y2281D01*
X3805D01*
Y2240D01*
X3764D01*
Y2494D02*
Y2535D01*
X3805D01*
Y2494D01*
X3764D01*
Y2748D02*
Y2789D01*
X3805D01*
Y2748D01*
X3764D01*
Y3002D02*
Y3043D01*
X3805D01*
Y3002D01*
X3764D01*
Y3256D02*
Y3297D01*
X3805D01*
Y3256D01*
X3764D01*
Y3510D02*
Y3551D01*
X3805D01*
Y3510D01*
X3764D01*
Y3764D02*
Y3805D01*
X3805D01*
Y3764D01*
X3764D01*
Y4018D02*
Y4059D01*
X3805D01*
Y4018D01*
X3764D01*
Y4272D02*
Y4313D01*
X3805D01*
Y4272D01*
X3764D01*
Y4526D02*
Y4567D01*
X3805D01*
Y4526D01*
X3764D01*
Y4780D02*
Y4821D01*
X3805D01*
Y4780D01*
X3764D01*
Y5034D02*
Y5075D01*
X3805D01*
Y5034D01*
X3764D01*
Y5288D02*
Y5329D01*
X3805D01*
Y5288D01*
X3764D01*
Y5542D02*
Y5583D01*
X3805D01*
Y5542D01*
X3764D01*
X8133Y1914D02*
Y1955D01*
X8174D01*
Y1914D01*
X8133D01*
Y2414D02*
Y2455D01*
X8174D01*
Y2414D01*
X8133D01*
X8158Y593D02*
Y634D01*
X8199D01*
Y593D01*
X8158D01*
Y1093D02*
Y1134D01*
X8199D01*
Y1093D01*
X8158D01*
X622Y1986D02*
X602Y2027D01*
X643D01*
X622Y1986D01*
X1232D02*
X1242Y1996D01*
X1252D01*
X1242Y2007D01*
X1252Y2017D01*
X1242D01*
X1232Y2027D01*
X1222Y2017D01*
X1212D01*
X1222Y2007D01*
X1212Y1996D01*
X1222D01*
X1232Y1986D01*
X902Y1491D02*
X881Y1532D01*
X922D01*
X902Y1491D01*
X5732Y2256D02*
X5743Y2276D01*
X5732Y2297D01*
X5753Y2287D01*
X5773Y2297D01*
X5763Y2276D01*
X5773Y2256D01*
X5753Y2266D01*
X5732Y2256D01*
X5543Y1666D02*
Y1656D01*
X5563D01*
Y1666D01*
X5573D01*
Y1687D01*
X5563D01*
Y1697D01*
X5543D01*
Y1687D01*
X5532D01*
Y1666D01*
X5543D01*
X5732Y1056D02*
X5743Y1076D01*
X5732Y1097D01*
X5753Y1087D01*
X5773Y1097D01*
X5763Y1076D01*
X5773Y1056D01*
X5753Y1066D01*
X5732Y1056D01*
X6963Y1066D02*
Y1056D01*
X6983D01*
Y1066D01*
X6993D01*
Y1087D01*
X6983D01*
Y1097D01*
X6963D01*
Y1087D01*
X6952D01*
Y1066D01*
X6963D01*
Y2266D02*
Y2256D01*
X6983D01*
Y2266D01*
X6993D01*
Y2287D01*
X6983D01*
Y2297D01*
X6963D01*
Y2287D01*
X6952D01*
Y2266D01*
X6963D01*
X8204Y3637D02*
X8214D01*
X8224Y3647D01*
X8235Y3637D01*
X8245D01*
Y3647D01*
X8235Y3658D01*
X8245Y3668D01*
Y3678D01*
X8235D01*
X8224Y3668D01*
X8214Y3678D01*
X8204D01*
Y3668D01*
X8214Y3658D01*
X8204Y3647D01*
Y3637D01*
Y3891D02*
X8214D01*
X8224Y3901D01*
X8235Y3891D01*
X8245D01*
Y3901D01*
X8235Y3912D01*
X8245Y3922D01*
Y3932D01*
X8235D01*
X8224Y3922D01*
X8214Y3932D01*
X8204D01*
Y3922D01*
X8214Y3912D01*
X8204Y3901D01*
Y3891D01*
Y4145D02*
X8214D01*
X8224Y4155D01*
X8235Y4145D01*
X8245D01*
Y4155D01*
X8235Y4166D01*
X8245Y4176D01*
Y4186D01*
X8235D01*
X8224Y4176D01*
X8214Y4186D01*
X8204D01*
Y4176D01*
X8214Y4166D01*
X8204Y4155D01*
Y4145D01*
Y4399D02*
X8214D01*
X8224Y4409D01*
X8235Y4399D01*
X8245D01*
Y4409D01*
X8235Y4420D01*
X8245Y4430D01*
Y4440D01*
X8235D01*
X8224Y4430D01*
X8214Y4440D01*
X8204D01*
Y4430D01*
X8214Y4420D01*
X8204Y4409D01*
Y4399D01*
Y4653D02*
X8214D01*
X8224Y4663D01*
X8235Y4653D01*
X8245D01*
Y4663D01*
X8235Y4674D01*
X8245Y4684D01*
Y4694D01*
X8235D01*
X8224Y4684D01*
X8214Y4694D01*
X8204D01*
Y4684D01*
X8214Y4674D01*
X8204Y4663D01*
Y4653D01*
Y4907D02*
X8214D01*
X8224Y4917D01*
X8235Y4907D01*
X8245D01*
Y4917D01*
X8235Y4928D01*
X8245Y4938D01*
Y4948D01*
X8235D01*
X8224Y4938D01*
X8214Y4948D01*
X8204D01*
Y4938D01*
X8214Y4928D01*
X8204Y4917D01*
Y4907D01*
X6025Y3891D02*
X6035D01*
X6045Y3901D01*
X6055Y3891D01*
X6066D01*
Y3901D01*
X6055Y3912D01*
X6066Y3922D01*
Y3932D01*
X6055D01*
X6045Y3922D01*
X6035Y3932D01*
X6025D01*
Y3922D01*
X6035Y3912D01*
X6025Y3901D01*
Y3891D01*
Y4145D02*
X6035D01*
X6045Y4155D01*
X6055Y4145D01*
X6066D01*
Y4155D01*
X6055Y4166D01*
X6066Y4176D01*
Y4186D01*
X6055D01*
X6045Y4176D01*
X6035Y4186D01*
X6025D01*
Y4176D01*
X6035Y4166D01*
X6025Y4155D01*
Y4145D01*
Y4399D02*
X6035D01*
X6045Y4409D01*
X6055Y4399D01*
X6066D01*
Y4409D01*
X6055Y4420D01*
X6066Y4430D01*
Y4440D01*
X6055D01*
X6045Y4430D01*
X6035Y4440D01*
X6025D01*
Y4430D01*
X6035Y4420D01*
X6025Y4409D01*
Y4399D01*
Y4653D02*
X6035D01*
X6045Y4663D01*
X6055Y4653D01*
X6066D01*
Y4663D01*
X6055Y4674D01*
X6066Y4684D01*
Y4694D01*
X6055D01*
X6045Y4684D01*
X6035Y4694D01*
X6025D01*
Y4684D01*
X6035Y4674D01*
X6025Y4663D01*
Y4653D01*
Y4907D02*
X6035D01*
X6045Y4917D01*
X6055Y4907D01*
X6066D01*
Y4917D01*
X6055Y4928D01*
X6066Y4938D01*
Y4948D01*
X6055D01*
X6045Y4938D01*
X6035Y4948D01*
X6025D01*
Y4938D01*
X6035Y4928D01*
X6025Y4917D01*
Y4907D01*
Y5161D02*
X6035D01*
X6045Y5171D01*
X6055Y5161D01*
X6066D01*
Y5171D01*
X6055Y5182D01*
X6066Y5192D01*
Y5202D01*
X6055D01*
X6045Y5192D01*
X6035Y5202D01*
X6025D01*
Y5192D01*
X6035Y5182D01*
X6025Y5171D01*
Y5161D01*
X4221Y1067D02*
X4242Y1087D01*
X4262Y1067D01*
X4242Y1046D01*
X4221Y1067D01*
Y813D02*
X4242Y833D01*
X4262Y813D01*
X4242Y792D01*
X4221Y813D01*
X4983D02*
X5004Y833D01*
X5024Y813D01*
X5004Y792D01*
X4983Y813D01*
Y1067D02*
X5004Y1087D01*
X5024Y1067D01*
X5004Y1046D01*
X4983Y1067D01*
X4221Y559D02*
X4242Y579D01*
X4262Y559D01*
X4242Y538D01*
X4221Y559D01*
X4983D02*
X5004Y579D01*
X5024Y559D01*
X5004Y538D01*
X4983Y559D01*
X792Y5568D02*
Y5608D01*
X833D01*
Y5568D01*
X792D01*
X803Y5578D02*
Y5598D01*
X823D01*
Y5578D01*
X803D01*
X6939Y5568D02*
Y5608D01*
X6980D01*
Y5568D01*
X6939D01*
X6949Y5578D02*
Y5598D01*
X6970D01*
Y5578D01*
X6949D01*
X6939Y513D02*
Y554D01*
X6980D01*
Y513D01*
X6939D01*
X6949Y523D02*
Y544D01*
X6970D01*
Y523D01*
X6949D01*
X996Y513D02*
Y554D01*
X1036D01*
Y513D01*
X996D01*
X1006Y523D02*
Y544D01*
X1026D01*
Y523D01*
X1006D01*
X1067Y4097D02*
X1046Y4138D01*
X1087D01*
X1067Y4097D01*
Y4107D02*
X1057Y4128D01*
X1077D01*
X1067Y4107D01*
Y3787D02*
X1046Y3828D01*
X1087D01*
X1067Y3787D01*
Y3797D02*
X1057Y3818D01*
X1077D01*
X1067Y3797D01*
Y4653D02*
X1046Y4694D01*
X1087D01*
X1067Y4653D01*
Y4663D02*
X1057Y4684D01*
X1077D01*
X1067Y4663D01*
Y4963D02*
X1046Y5004D01*
X1087D01*
X1067Y4963D01*
Y4973D02*
X1057Y4994D01*
X1077D01*
X1067Y4973D01*
D54*
X376Y4928D02*
G03*
X376Y4928I-20J0D01*
G01*
Y4674D02*
G03*
X376Y4674I-20J0D01*
G01*
Y4420D02*
G03*
X376Y4420I-20J0D01*
G01*
X401Y2946D02*
G03*
X401Y2946I-20J0D01*
G01*
X1671D02*
G03*
X1671Y2946I-20J0D01*
G01*
X1824Y4089D02*
G03*
X1824Y4089I-20J0D01*
G01*
Y5359D02*
G03*
X1824Y5359I-20J0D01*
G01*
X4923Y3023D02*
G03*
X4923Y3023I-20J0D01*
G01*
Y4293D02*
G03*
X4923Y4293I-20J0D01*
G01*
X4491Y3658D02*
G03*
X4491Y3658I-20J0D01*
G01*
Y2388D02*
G03*
X4491Y2388I-20J0D01*
G01*
X5380Y3073D02*
G03*
X5380Y3073I-20J0D01*
G01*
Y4343D02*
G03*
X5380Y4343I-20J0D01*
G01*
D55*
X391Y2946D02*
G03*
X391Y2946I-10J0D01*
G01*
X1661D02*
G03*
X1661Y2946I-10J0D01*
G01*
X1814Y4089D02*
G03*
X1814Y4089I-10J0D01*
G01*
Y5359D02*
G03*
X1814Y5359I-10J0D01*
G01*
X4912Y3023D02*
G03*
X4912Y3023I-10J0D01*
G01*
Y4293D02*
G03*
X4912Y4293I-10J0D01*
G01*
X4481Y3658D02*
G03*
X4481Y3658I-10J0D01*
G01*
Y2388D02*
G03*
X4481Y2388I-10J0D01*
G01*
X5370Y3073D02*
G03*
X5370Y3073I-10J0D01*
G01*
Y4343D02*
G03*
X5370Y4343I-10J0D01*
G01*
M02*
