M48
;Layer_Color=9474304
;FILE_FORMAT=4:4
METRIC,LZ
;TYPE=PLATED
T1F00S00C0.7590
T2F00S00C0.8000
T3F00S00C0.8128
T4F00S00C0.8350
T6F00S00C1.2300
T7F00S00C1.5000
T8F00S00C3.0000
%
T01
X0076605Y0038949
X0092163
Y0041489
Y0044029
Y0046569
Y0049109
Y0051649
Y0054189
Y0056729
Y0059269
Y0061809
Y0064349
Y0066889
Y0069429
Y0071969
Y0074509
Y0077049
X0076605
X0076605Y0074509
Y0071969
Y0069429
Y0066889
Y0064349
Y0061809
Y0059269
Y0056729
X0076605Y0054189
X0076605Y0051649
Y0049109
Y0046569
Y0044029
Y0041489
Y0079589
Y0082129
Y0084669
Y0087209
X0092163
Y0084669
Y0082129
Y0079589
T02
X0101246Y007728
X0070004Y0077684
Y0075144
Y0072604
Y0070064
X0069496Y0060054
X0072798Y0062086
X006467Y0061936
Y0064476
X0064924Y0044918
X0062384
Y0041616
X0064924
X0069496Y0047054
X0072798Y0049086
X009642Y0087082
Y0089622
X0101246Y009028
T03
X0113184Y0032472
X0115724
X0118264
Y00386406
X0115724
X0113184
Y00448091
X0115724
X0118264
Y00509777
X0115724
X0113184
Y00571462
X0115724
X0118264
Y00633148
X0115724
X0113184
Y00694834
X0115724
X0118264
Y0075652
X0115724
X0113184
X0106326Y0086828
Y0089368
Y0091908
T04
X0035206Y0035774
X0035206Y0038314
X0058066
X0058066Y0035774
Y0040854
Y0043394
Y0045934
X0058066Y0048474
X0058066Y0051014
Y0053554
Y0056094
Y0058634
Y0061174
Y0063714
Y0066254
Y0068794
Y0071334
X0035206Y0071334
X0035206Y0068794
Y0066254
Y0063714
Y0061174
Y0058634
Y0056094
Y0053554
Y0051014
X0035206Y0048474
X0035206Y0045934
Y0043394
Y0040854
T06
X0056288Y0094194
X0058828
X0061368
T07
X0080164Y002409
X0084228
X0090578
X0094642
X0122836Y0034504
Y0038568
Y0046442
Y0050506
Y005838
Y0062444
Y0070318
Y0074382
X0050954Y0092924
X0050954Y0098004
X0084482Y0106894
X0088546
X0122836Y0096226
Y0092162
T08
X0055018Y0022566
X011547
X0055018Y0109434
X011547
M30
