G04 Layer_Color=32896*
%FSLAX44Y44*%
%MOMM*%
G71*
G01*
G75*
%ADD30C,0.2540*%
%ADD48C,0.0254*%
D30*
X397789Y329800D02*
Y332339D01*
X387632Y342496D01*
Y345035D01*
X397789D01*
X407946D02*
X410485Y342496D01*
X415563D02*
X418102Y345035D01*
X423181D01*
X425720Y342496D01*
Y332339D01*
X423181Y329800D01*
X418102D01*
X415563Y332339D01*
X410485Y329800D02*
X405407D01*
X407946D01*
Y345035D01*
X433340Y350120D02*
X463820D01*
Y390760D01*
X433340D01*
Y350120D01*
X461283Y400920D02*
X458743Y403459D01*
X461283Y400920D02*
X466361D01*
X468900Y403459D01*
Y413616D01*
X466361Y416155D01*
X461283D01*
X458743Y413616D01*
X453665D02*
X451126Y416155D01*
Y400920D01*
X448587D01*
X453665D01*
X440969Y403459D02*
X438430Y400920D01*
X433352D01*
X430812Y403459D01*
Y405998D01*
X433352Y408537D01*
X440969D01*
Y403459D01*
Y408537D02*
X435891Y413616D01*
X430812Y416155D01*
X428260Y390760D02*
X397780D01*
Y350120D01*
X428260D01*
Y390760D01*
X712740Y637140D02*
X743220D01*
Y677780D01*
X712740D01*
Y637140D01*
X730523Y685400D02*
X735602Y690478D01*
X733063D02*
X740680D01*
Y685400D02*
Y700635D01*
X733063D01*
X730523Y698096D01*
Y693018D01*
X733063Y690478D01*
X722906Y700635D02*
X725445Y698096D01*
Y685400D02*
X720367D01*
X722906D01*
Y700635D01*
X710210D02*
X712749Y698096D01*
X702592D02*
X705132Y700635D01*
X710210D01*
X702592Y698096D02*
Y695557D01*
X712749Y685400D01*
X702592D01*
X819420Y611740D02*
Y652380D01*
X849900D01*
Y611740D01*
X819420D01*
X852453Y591419D02*
X854992Y588880D01*
X860071D01*
X862610Y591419D01*
Y601576D01*
X860071Y604115D01*
X854992D01*
X852453Y601576D01*
Y591419D01*
X867688Y588880D02*
X877845D01*
X867688Y599037D01*
Y601576D01*
X870227Y604115D01*
X875306D01*
X877845Y601576D01*
X882923D02*
X885462Y604115D01*
X890541D01*
X893080Y601576D01*
Y591419D01*
X890541Y588880D01*
X885462D01*
X882923Y591419D01*
X885460Y611740D02*
Y652380D01*
X854980D01*
Y611740D01*
X885460D01*
X849900Y662539D02*
X847361Y660000D01*
X842282D01*
X839743Y662539D01*
X834665Y660000D02*
X829587D01*
X832126D01*
Y675235D01*
X834665Y672696D01*
X839743D02*
X842282Y675235D01*
X847361D01*
X849900Y672696D01*
Y662539D01*
X819430Y675235D02*
X821969Y672696D01*
Y670157D01*
X819430Y667617D01*
X811812D01*
Y662539D02*
Y672696D01*
X814352Y675235D01*
X819430D01*
X821969Y662539D02*
X819430Y660000D01*
X814352D01*
X811812Y662539D01*
X937526Y685545D02*
X940066Y683006D01*
X945144D01*
X947683Y685545D01*
Y688084D01*
X945144Y690623D01*
X947683Y693163D01*
Y695702D01*
X945144Y698241D01*
X940066D01*
X937526Y695702D01*
Y693163D01*
X940066Y690623D01*
X937526Y688084D01*
Y685545D01*
X940066Y690623D02*
X945144D01*
X955301Y683006D02*
X957840D01*
Y698241D01*
X960379Y695702D01*
X965457D02*
X967997Y698241D01*
X973075D01*
X975614Y695702D01*
Y685545D01*
X973075Y683006D01*
X967997D01*
X965457Y685545D01*
X960379Y683006D02*
X955301D01*
X946420Y672700D02*
X976900D01*
Y632060D01*
X946420D01*
Y672700D01*
X992140Y621900D02*
X1032780D01*
Y591420D01*
X992140D01*
Y621900D01*
X980694Y614327D02*
X973076D01*
X970537Y611788D01*
Y606710D01*
X973076Y604170D01*
X980694D01*
Y599092D02*
Y614327D01*
X975616Y604170D02*
X970537Y599092D01*
X973076Y578767D02*
X970537Y576228D01*
Y571149D01*
X973076Y568610D01*
X980694D01*
X975616D02*
X970537Y563532D01*
X980694D02*
Y578767D01*
X973076D01*
X992140Y586340D02*
X1032780D01*
Y555860D01*
X992140D01*
Y586340D01*
Y550620D02*
X1032780D01*
Y520140D01*
X992140D01*
Y550620D01*
X980694Y543047D02*
X973076D01*
X970537Y540508D01*
Y535429D01*
X973076Y532890D01*
X980694D01*
Y527812D02*
Y543047D01*
X975616Y532890D02*
X970537Y527812D01*
X992140Y515220D02*
X1032780D01*
Y484740D01*
X992140D01*
Y515220D01*
X980694Y507647D02*
X973076D01*
X970537Y505108D01*
Y500029D01*
X973076Y497490D01*
X980694D01*
Y492412D02*
Y507647D01*
X975616Y497490D02*
X970537Y492412D01*
X973076Y471927D02*
X970537Y469388D01*
Y464310D01*
X973076Y461770D01*
X980694D01*
X975616D02*
X970537Y456692D01*
X980694D02*
Y471927D01*
X973076D01*
X992140Y479500D02*
X1032780D01*
Y449020D01*
X992140D01*
Y479500D01*
Y444100D02*
X1032780D01*
Y413620D01*
X992140D01*
Y444100D01*
X980694Y436527D02*
X973076D01*
X970537Y433988D01*
Y428909D01*
X973076Y426370D01*
X980694D01*
Y421292D02*
Y436527D01*
X975616Y426370D02*
X970537Y421292D01*
X965459Y431449D02*
Y433988D01*
X962920Y436527D01*
X957841D01*
X955302Y433988D01*
Y431449D01*
X957841Y428909D01*
X955302Y426370D01*
Y423831D01*
X957841Y421292D01*
X962920D01*
X965459Y423831D01*
Y426370D01*
X962920Y428909D01*
X965459Y431449D01*
Y456692D02*
Y459231D01*
X955302Y469388D01*
Y471927D01*
X965459D01*
Y494951D02*
X962920Y492412D01*
X957841D01*
X955302Y494951D01*
Y497490D01*
X957841Y500029D01*
X965459D01*
Y494951D01*
Y500029D02*
X960381Y505108D01*
X955302Y507647D01*
Y530351D02*
X957841Y527812D01*
X962920D01*
X965459Y530351D01*
Y535429D02*
X960381Y537969D01*
X957841D01*
X955302Y535429D01*
Y530351D01*
X965459Y535429D02*
Y543047D01*
X955302D01*
X957841Y563532D02*
Y578767D01*
X965459Y571149D01*
X955302D01*
Y601631D02*
X957841Y599092D01*
X962920D01*
X965459Y601631D01*
Y611788D02*
X962920Y614327D01*
X957841D01*
X955302Y611788D01*
Y609249D01*
X957841Y606710D01*
X960381D01*
X957841D01*
X955302Y604170D01*
Y601631D01*
X1017548Y644760D02*
X1027705D01*
X1017548Y654917D01*
Y657456D01*
X1020087Y659995D01*
X1025166D01*
X1027705Y657456D01*
X1032783D02*
Y652377D01*
X1035322Y649838D01*
X1042940D01*
X1037862D02*
X1032783Y644760D01*
X1042940D02*
Y659995D01*
X1035322D01*
X1032783Y657456D01*
X1032780Y667620D02*
Y698100D01*
X992140D01*
Y667620D01*
X1032780D01*
Y705720D02*
Y736200D01*
X992140D01*
Y705720D01*
X1032780D01*
X981980Y731115D02*
X974362D01*
X971823Y728576D01*
Y723497D01*
X974362Y720958D01*
X981980D01*
Y715880D02*
Y731115D01*
X976902Y720958D02*
X971823Y715880D01*
X966745Y728576D02*
X964206Y731115D01*
Y715880D01*
X961667D01*
X966745D01*
X1093747Y835260D02*
X1091208Y837799D01*
Y847956D01*
X1093747Y850495D01*
X1098826D01*
X1101365Y847956D01*
Y845417D01*
X1098826Y842878D01*
X1091208D01*
X1093747Y835260D02*
X1098826D01*
X1101365Y837799D01*
X1093740Y855580D02*
X1124220D01*
Y896220D01*
X1093740D01*
Y855580D01*
X1106443Y847956D02*
X1108982Y850495D01*
X1114061D01*
X1116600Y847956D01*
Y837799D01*
X1114061Y835260D01*
X1108982D01*
X1106443Y837799D01*
X1126760Y855580D02*
X1157240D01*
Y896220D01*
X1126760D01*
Y855580D01*
X1134391Y850495D02*
X1131852Y847956D01*
Y837799D01*
X1134391Y835260D01*
X1139470D01*
X1142009Y837799D01*
Y847956D01*
X1139470Y850495D01*
X1134391D01*
X1152166D02*
X1154705Y847956D01*
X1152166Y850495D02*
Y835260D01*
X1149627D01*
X1154705D01*
X1162322D02*
X1159783Y837799D01*
X1162322Y835260D02*
X1167401D01*
X1169940Y837799D01*
Y847956D01*
X1167401Y850495D01*
X1162322D01*
X1159783Y847956D01*
X1147080Y931779D02*
X1144541Y929240D01*
X1139463D01*
X1136923Y931779D01*
X1131845D02*
Y929240D01*
Y931779D02*
X1121688Y941936D01*
Y944475D01*
X1131845D01*
X1139463D02*
X1144541D01*
X1147080Y941936D01*
Y931779D01*
X1136923Y941936D02*
X1139463Y944475D01*
X1147080Y952100D02*
Y992740D01*
X1116600D01*
Y952100D01*
X1147080D01*
X1104263Y992740D02*
X1073783D01*
Y952100D01*
X1104263D01*
Y992740D01*
X1103901Y944475D02*
X1106440Y941936D01*
Y931779D01*
X1103901Y929240D01*
X1098822D01*
X1096283Y931779D01*
X1091205D02*
Y934318D01*
X1088666Y936858D01*
X1091205Y939397D01*
Y941936D01*
X1088666Y944475D01*
X1083587D01*
X1081048Y941936D01*
Y939397D01*
X1083587Y936858D01*
X1081048Y934318D01*
Y931779D01*
X1083587Y929240D01*
X1088666D01*
X1091205Y931779D01*
X1088666Y936858D02*
X1083587D01*
X1096283Y941936D02*
X1098822Y944475D01*
X1103901D01*
X1111520Y1002900D02*
Y1043540D01*
X1081040D01*
Y1002900D01*
X1111520D01*
X1110234Y1052322D02*
Y1059939D01*
X1105156D01*
X1110234D01*
Y1067557D01*
X1100077D01*
X1094999D02*
Y1052322D01*
X1087381D01*
X1084842Y1054861D01*
Y1057400D01*
X1087381Y1059939D01*
X1094999D01*
X1087381D01*
X1084842Y1062479D01*
Y1065018D01*
X1087381Y1067557D01*
X1094999D01*
X1077225D02*
X1079764Y1065018D01*
X1077225Y1067557D02*
Y1052322D01*
X1074686D01*
X1079764D01*
X1060720Y1013060D02*
Y982580D01*
X1020080D01*
Y1013060D01*
X1060720D01*
Y977500D02*
Y947020D01*
X1020080D01*
Y977500D01*
X1060720D01*
X1045482Y941935D02*
X1050561D01*
X1053100Y939396D01*
Y929239D01*
X1050561Y926700D01*
X1045482D01*
X1042943Y929239D01*
X1037865Y926700D02*
X1032787D01*
X1035326D01*
Y941935D01*
X1037865Y939396D01*
X1042943D02*
X1045482Y941935D01*
X1025169Y939396D02*
X1022630Y941935D01*
X1017551D01*
X1015012Y939396D01*
Y936857D01*
X1017551Y934317D01*
X1020091D01*
X1017551D01*
X1015012Y931778D01*
Y929239D01*
X1017551Y926700D01*
X1022630D01*
X1025169Y929239D01*
X1012460Y947020D02*
Y977500D01*
X971820D01*
Y947020D01*
X1012460D01*
Y982580D02*
Y1013060D01*
X971820D01*
Y982580D01*
X1012460D01*
X966740Y1028296D02*
Y1018139D01*
X964201Y1015600D01*
X959122D01*
X956583Y1018139D01*
X951505Y1015600D02*
X946427D01*
X948966D01*
Y1030835D01*
X951505Y1028296D01*
X956583D02*
X959122Y1030835D01*
X964201D01*
X966740Y1028296D01*
X964201Y1007975D02*
X966740Y1005436D01*
Y995279D01*
X964201Y992740D01*
X959122D01*
X956583Y995279D01*
X951505D02*
X948966Y992740D01*
X943887D01*
X941348Y995279D01*
Y997818D01*
X943887Y1000358D01*
X951505D01*
Y995279D01*
Y967335D02*
Y959717D01*
X946427Y962257D01*
X943887D01*
X941348Y959717D01*
Y954639D01*
X943887Y952100D01*
X948966D01*
X951505Y954639D01*
X956583D02*
X959122Y952100D01*
X964201D01*
X966740Y954639D01*
Y964796D01*
X964201Y967335D01*
X959122D01*
X956583Y964796D01*
X951505Y967335D02*
X941348D01*
X918480Y926700D02*
X877840D01*
Y896220D01*
X918480D01*
Y926700D01*
X913400Y949555D02*
X905782D01*
X903243Y947016D01*
Y941937D01*
X905782Y939398D01*
X913400D01*
Y934320D02*
Y949555D01*
X895626D02*
X898165Y947016D01*
X895626Y949555D02*
Y934320D01*
X893087D01*
X898165D01*
X903243D02*
X908322Y939398D01*
X885469Y947016D02*
X882930Y949555D01*
Y934320D01*
X880391D01*
X885469D01*
X946427Y1005436D02*
X951505Y1000358D01*
X956583Y1005436D02*
X959122Y1007975D01*
X964201D01*
X946427Y1005436D02*
X941348Y1007975D01*
X938809Y1015600D02*
X928652Y1025757D01*
Y1028296D01*
X931191Y1030835D01*
X936270D01*
X938809Y1028296D01*
Y1015600D02*
X928652D01*
X783860Y1051156D02*
Y1040999D01*
X781321Y1038460D01*
X776243D01*
X773703Y1040999D01*
X768625Y1038460D02*
X763547D01*
X766086D01*
Y1053695D01*
X768625Y1051156D01*
X773703D02*
X776243Y1053695D01*
X781321D01*
X783860Y1051156D01*
X781320Y1028300D02*
X750840D01*
Y987660D01*
X781320D01*
Y1028300D01*
X755929Y1051156D02*
X753390Y1053695D01*
Y1038460D01*
X750851D01*
X755929D01*
X623840Y926700D02*
Y896220D01*
X583200D01*
Y926700D01*
X623840D01*
Y893680D02*
Y863200D01*
X583200D01*
Y893680D01*
X623840D01*
X617477Y849117D02*
X627634D01*
Y841499D01*
X622556D01*
X627634D01*
Y833882D01*
X628920Y825100D02*
Y784460D01*
X598440D01*
Y825100D01*
X628920D01*
X612399Y841499D02*
X604781D01*
X612399D01*
Y849117D02*
Y833882D01*
X604781D01*
X602242Y836421D01*
Y838960D01*
X604781Y841499D01*
X602242Y844039D01*
Y846578D01*
X604781Y849117D01*
X612399D01*
X594625D02*
X597164Y846578D01*
X594625Y849117D02*
X589546D01*
X587007Y846578D01*
Y844039D01*
X597164Y833882D01*
X587007D01*
X573040Y875899D02*
X570501Y873360D01*
X565423D01*
X562883Y875899D01*
Y886056D02*
X565423Y888595D01*
X570501D01*
X573040Y886056D01*
Y875899D01*
Y906379D02*
X570501Y903840D01*
X565423D01*
X562883Y906379D01*
X557805D02*
X555266Y903840D01*
X550187D01*
X547648Y906379D01*
Y908918D01*
X550187Y911458D01*
X552727D01*
X550187D01*
X547648Y913997D01*
Y916536D01*
X550187Y919075D01*
X555266D01*
X557805Y916536D01*
X562883D02*
X565423Y919075D01*
X570501D01*
X573040Y916536D01*
Y906379D01*
X550187Y888595D02*
X557805Y880977D01*
X547648D01*
X550187Y873360D02*
Y888595D01*
X471440Y891139D02*
X468901Y888600D01*
X463823D01*
X461283Y891139D01*
Y901296D02*
X463823Y903835D01*
X468901D01*
X471440Y901296D01*
Y891139D01*
X468901Y865735D02*
X471440Y863196D01*
Y853039D01*
X468901Y850500D01*
X463823D01*
X461283Y853039D01*
Y863196D02*
X463823Y865735D01*
X468901D01*
X456205Y888600D02*
X446048Y898757D01*
Y901296D01*
X448587Y903835D01*
X453666D01*
X456205Y901296D01*
Y888600D02*
X446048D01*
X439563Y912730D02*
Y882250D01*
X398923D01*
Y912730D01*
X439563D01*
Y874630D02*
Y844150D01*
X398923D01*
Y874630D01*
X439563D01*
X453666Y865735D02*
X456205Y863196D01*
X453666Y865735D02*
Y850500D01*
X451127D01*
X456205D01*
X860060Y454260D02*
X900700D01*
Y423780D01*
X860060D01*
Y454260D01*
Y406000D02*
X900700D01*
Y375520D01*
X860060D01*
Y406000D01*
X860072Y367935D02*
X870229D01*
Y360317D01*
X865151Y362857D01*
X862611D01*
X860072Y360317D01*
Y355239D01*
X862611Y352700D01*
X867690D01*
X870229Y355239D01*
X877847Y352700D02*
X880386D01*
Y367935D01*
X882925Y365396D01*
X888003D02*
Y360317D01*
X890543Y357778D01*
X898160D01*
Y352700D02*
Y367935D01*
X890543D01*
X888003Y365396D01*
Y352700D02*
X893082Y357778D01*
X882925Y352700D02*
X877847D01*
X957841Y428909D02*
X962920D01*
X899414Y463042D02*
Y478277D01*
X891796D01*
X889257Y475738D01*
Y470659D01*
X891796Y468120D01*
X899414D01*
X894336D02*
X889257Y463042D01*
X884179D02*
X879101D01*
X881640D01*
Y478277D01*
X884179Y475738D01*
X871483Y470659D02*
X861326D01*
X863866Y463042D02*
Y478277D01*
X871483Y470659D01*
D48*
X397780Y393300D02*
X428260D01*
X433340D02*
X463820D01*
X819420Y609200D02*
X849900D01*
X854980D02*
X885460D01*
X946420Y675240D02*
X976900D01*
X1157240Y898760D02*
X1126760D01*
X1124220D02*
X1093740D01*
X1147080Y949560D02*
X1116600D01*
X1104263D02*
X1073783D01*
X1017540Y1013060D02*
Y982580D01*
X1015000D02*
Y1013060D01*
Y977500D02*
Y947020D01*
X1017540D02*
Y977500D01*
X781320Y1030840D02*
X750840D01*
X580660Y926700D02*
Y896220D01*
Y893680D02*
Y863200D01*
X396383Y912730D02*
Y882250D01*
Y874630D02*
Y844150D01*
M02*
