G04 Layer_Physical_Order=2*
G04 Layer_Color=16711680*
%FSLAX44Y44*%
%MOMM*%
G71*
G01*
G75*
%ADD10R,0.8890X1.9050*%
%ADD11R,1.9050X0.8890*%
%ADD12C,1.2000*%
%ADD13C,1.0000*%
%ADD14C,0.8000*%
%ADD15R,14.9860X7.8740*%
%ADD16R,5.5880X21.5900*%
%ADD17C,1.1590*%
%ADD18R,1.1590X1.1590*%
%ADD19R,1.6000X1.6000*%
%ADD20C,1.6000*%
%ADD21R,1.8450X1.8450*%
%ADD22C,1.8450*%
%ADD23C,3.0000*%
%ADD24O,4.8000X2.2000*%
%ADD25O,2.2000X4.8000*%
%ADD26C,1.5000*%
%ADD27C,2.5000*%
%ADD28C,1.6764*%
%ADD29C,6.0000*%
D10*
X409083Y859390D02*
D03*
X429403D02*
D03*
Y897490D02*
D03*
X409083D02*
D03*
X593360Y878440D02*
D03*
X613680D02*
D03*
Y911460D02*
D03*
X593360D02*
D03*
X888000Y911460D02*
D03*
X908320D02*
D03*
X981980Y962260D02*
D03*
X1002300D02*
D03*
X1030240D02*
D03*
X1050560D02*
D03*
Y997820D02*
D03*
X1030240D02*
D03*
X1002300D02*
D03*
X981980D02*
D03*
X1002300Y720960D02*
D03*
X1022620D02*
D03*
Y682860D02*
D03*
X1002300D02*
D03*
Y606660D02*
D03*
X1022620D02*
D03*
Y571100D02*
D03*
X1002300D02*
D03*
Y535380D02*
D03*
X1022620D02*
D03*
Y499980D02*
D03*
X1002300D02*
D03*
Y464260D02*
D03*
X1022620D02*
D03*
Y428860D02*
D03*
X1002300D02*
D03*
X890540Y439020D02*
D03*
X870220D02*
D03*
Y390760D02*
D03*
X890540D02*
D03*
D11*
X413020Y360280D02*
D03*
X448580D02*
D03*
Y380600D02*
D03*
X413020D02*
D03*
X727980Y647300D02*
D03*
Y667620D02*
D03*
X834660Y642220D02*
D03*
Y621900D02*
D03*
X870220D02*
D03*
Y642220D02*
D03*
X961660D02*
D03*
Y662540D02*
D03*
X1142000Y865740D02*
D03*
Y886060D02*
D03*
X1108980D02*
D03*
Y865740D02*
D03*
X1131840Y962260D02*
D03*
Y982580D02*
D03*
X1096280Y1033380D02*
D03*
Y1013060D02*
D03*
X1089023Y982580D02*
D03*
Y962260D02*
D03*
X766080Y997820D02*
D03*
Y1018140D02*
D03*
X613680Y814940D02*
D03*
Y794620D02*
D03*
D12*
X342220Y337100D02*
X354600Y324720D01*
X468900D01*
Y349659D01*
X470105Y350864D01*
Y369696D01*
X468900Y370901D01*
Y380600D01*
X448580D01*
X413020D01*
Y614280D01*
X555260Y756520D01*
X606060D01*
X644160Y718420D01*
Y560940D01*
X708900D01*
X766050Y618090D01*
X830850D01*
X834660Y621900D01*
X844820D01*
X870220D01*
X881650Y643490D02*
X900700Y624440D01*
X907050Y618090D01*
X921630D01*
X937530D01*
X961660Y642220D01*
X921630Y643490D02*
X844820Y720300D01*
Y888600D01*
X770255Y963165D01*
X715280D01*
X604889D01*
X592455Y950732D01*
Y941940D01*
X588280D01*
Y873360D01*
X550180Y835260D01*
X392700D01*
X381270Y846690D01*
Y860660D01*
X382540Y859390D01*
X409083D01*
X429403D02*
Y897490D01*
Y940543D01*
X438420Y949560D01*
X509540D01*
X555261D01*
X586866Y981165D01*
X768620D01*
X798125D01*
X844820Y1027860D01*
Y1068940D01*
X875080Y1099200D01*
X926320D01*
X987060Y1038460D01*
X989600D01*
X981980Y1030840D01*
Y997820D01*
Y962260D01*
X1015000Y934320D02*
Y962260D01*
X1030240D01*
X1063260Y919080D02*
X1065800Y921620D01*
X1126760D01*
X1172480D01*
X1177560D01*
X1172480D02*
X1131840Y962260D01*
X1089023D01*
X1125490Y920350D02*
X1126760Y921620D01*
X1125490Y920350D02*
Y886060D01*
X1142000D01*
Y865740D02*
X1190260D01*
X1215660Y891140D01*
Y924161D01*
X1177560Y962260D01*
X1157240Y982580D01*
X1126760Y1013060D01*
X1096280D01*
X1089023Y982580D02*
X1131840D01*
X1157240D01*
X1096280Y1033380D02*
X1091200Y1038460D01*
X1040400D01*
X1050560Y1028300D01*
Y997820D01*
Y962260D01*
X1030240Y997820D02*
X1015000D01*
Y1038460D01*
Y1070920D01*
X968720Y1117200D01*
X839576D01*
X763540Y1041164D01*
X766080Y1038624D01*
Y1018140D01*
Y997820D02*
Y983705D01*
X768620Y981165D01*
X727816Y1005440D02*
X763540Y1041164D01*
X727816Y1005440D02*
X517160D01*
X500650Y988930D01*
X509540Y949560D02*
Y929240D01*
X458520Y946800D02*
X433340Y921620D01*
X438420Y949560D02*
X417178D01*
X430800Y995280D02*
Y1000360D01*
X423180D01*
X381270Y972420D02*
Y945750D01*
Y898760D01*
X382540Y897490D01*
X409083D01*
X381270Y898760D02*
Y860660D01*
X433340Y792080D02*
X623840D01*
X646700Y769220D01*
X669560D01*
X697556D01*
X733280Y804944D01*
Y878660D01*
X752110Y897490D01*
X774970D01*
X794020Y878440D01*
Y643490D01*
X881650D01*
X900700Y624440D02*
Y482200D01*
X870220Y451720D01*
Y439020D01*
Y390760D01*
Y370440D01*
X923560Y317100D01*
X946420D01*
X964200Y299320D01*
Y296780D01*
X936260D02*
X910804D01*
X877840Y329744D01*
Y240900D01*
X919260Y195960D02*
X1015000Y291700D01*
Y296780D01*
X1015000Y296780D01*
Y346976D01*
X921686Y440290D01*
X921630D01*
X891810D01*
X890540Y439020D01*
X909590Y414890D02*
X921630D01*
X909590D02*
X890540Y395840D01*
Y390760D01*
X877840Y329744D02*
X849900Y357684D01*
Y616820D01*
X844820Y621900D01*
X794020Y643490D02*
X766050D01*
X717591D01*
X694960Y620860D01*
Y600540D01*
X727980Y620860D02*
X727980Y620860D01*
Y629520D01*
X740680Y642220D01*
X765882Y668890D02*
X766050D01*
Y694290D02*
X765938D01*
X764780Y718420D02*
X766050Y719690D01*
X765994D01*
X764780Y718420D02*
X669560D01*
Y743820D02*
X764780D01*
X766050Y745090D01*
X715280Y812400D02*
Y963165D01*
X613680Y941940D02*
X613680Y911460D01*
Y878440D01*
X613680Y878440D01*
Y820020D01*
X613538Y815247D01*
X613536Y815171D01*
X613533Y815096D01*
X613531Y815020D01*
X613529Y814944D01*
X613396Y814940D02*
X613396Y814931D01*
Y814931D01*
X613462Y812709D01*
X669560Y794620D02*
X697500D01*
X715280Y812400D01*
X600924Y736200D02*
X613680Y723444D01*
Y662540D01*
X590821D01*
X600924Y736200D02*
X585396D01*
X489220Y640024D01*
Y356558D01*
X649818Y195960D01*
X919260D01*
X1081040Y289160D02*
X1185180D01*
X1210580Y314560D01*
Y418700D01*
Y543160D01*
Y662540D01*
Y756520D01*
X1175020Y792080D01*
X1081040D01*
Y784460D02*
Y756520D01*
Y784460D02*
X954040Y911460D01*
X992140D01*
X1015000Y934320D01*
Y962260D02*
Y997820D01*
X1002300D01*
Y962260D02*
X1015000D01*
X954040Y911460D02*
X908320D01*
X899430Y872090D02*
X921630D01*
X899430D02*
X885460Y886060D01*
Y1068940D01*
X999760Y868280D02*
X1037860D01*
X1063260D01*
X1063260Y868280D01*
X1037860Y868280D02*
X1037861Y868279D01*
X1108980Y865740D02*
X1142000D01*
X1125490Y886060D02*
X1108980D01*
X1131840Y756520D02*
X1164861D01*
X1177560Y743820D01*
Y703180D02*
X1169214Y694834D01*
X1131840D01*
Y633148D02*
X1168852D01*
X1177560Y624440D01*
X1210580Y662540D02*
X1081040D01*
Y694834D01*
Y662540D02*
Y633148D01*
Y571462D02*
Y543160D01*
X1210580D01*
X1165222Y571462D02*
X1177560Y583800D01*
X1165222Y571462D02*
X1131840D01*
X1081040Y543160D02*
Y509777D01*
Y448091D02*
Y416160D01*
X1208040D01*
X1210580Y418700D01*
X1161231Y448091D02*
X1177560Y464420D01*
X1161231Y448091D02*
X1131840D01*
Y386406D02*
X1176835D01*
X1177560Y385680D01*
X1157240Y324720D02*
X1177560Y345040D01*
X1157240Y324720D02*
X1131840D01*
X1081040Y386406D02*
Y416160D01*
Y324720D02*
Y289160D01*
X1172843Y509777D02*
X1177560Y505060D01*
X1172843Y509777D02*
X1131840D01*
X984750Y745090D02*
X1012460Y772800D01*
X984750Y745090D02*
X921630D01*
X644160Y560940D02*
X590820D01*
X555260D01*
X540020Y545700D01*
Y357629D01*
X656749Y240900D01*
X733060D01*
X448580Y360280D02*
X413020D01*
X392700D01*
X390160Y357740D01*
Y748900D01*
X433340Y792080D01*
X342220Y906700D02*
X381270Y945750D01*
X342220Y906700D02*
Y380600D01*
X344760Y383140D01*
X362220D01*
X362220Y357740D02*
X390160D01*
X342220Y380600D02*
Y337100D01*
D13*
X506220Y363600D02*
X656860Y212960D01*
X908320D01*
X989600Y294240D01*
Y296780D01*
Y299320D01*
X926100Y362820D01*
X918480D01*
X890540Y390760D01*
X962930Y465690D02*
X999760Y428860D01*
X1002300D01*
X1022620D02*
X1039640Y411841D01*
Y376280D01*
X1071818Y344102D01*
X1097218D01*
X1106440Y334880D01*
Y324720D01*
X1095404Y367024D02*
X1106440Y378060D01*
Y386406D01*
X1095404Y367024D02*
X1073012D01*
X1055640Y384396D01*
Y436480D01*
X1027860Y464260D01*
X1022620D01*
X1002300D02*
X1002140Y464420D01*
X999760D01*
X973090Y491090D01*
X921630D01*
Y465690D02*
X962930D01*
X1002300Y499980D02*
X985790Y516490D01*
X921630D01*
Y541890D02*
X985790D01*
X992300Y535380D01*
X1002300D01*
X1022620D02*
Y530460D01*
X1063260Y489820D01*
X1096280D01*
X1106440Y499980D01*
Y509777D01*
X1093740Y469500D02*
X1106440Y456800D01*
Y448091D01*
X1093740Y469500D02*
X1053100D01*
X1022620Y499980D01*
X1093740Y591420D02*
X1106440Y578720D01*
Y571462D01*
X1094029Y611740D02*
X1106440Y624151D01*
Y633148D01*
X1094029Y611740D02*
X1027700D01*
X1022620Y606660D01*
X1002300D02*
X988330Y592690D01*
X921630D01*
Y567290D02*
X998490D01*
X1002300Y571100D01*
X1022620D02*
X1025160D01*
X1045480Y591420D01*
X1093740D01*
X1106440Y694834D02*
Y700640D01*
X1092864Y714216D01*
X1048896D01*
X1022620Y687940D01*
Y682860D01*
Y720960D02*
X1035320Y733660D01*
X1088660D01*
X1106440Y751440D01*
Y756520D01*
X1063260Y893680D02*
X1060720D01*
X1053100Y901300D01*
X1016499D01*
X1012459Y905340D01*
X928640Y662540D02*
X948960D01*
X928640D02*
Y661880D01*
X921630Y668890D01*
X764780Y693020D02*
X766050Y694290D01*
X764780Y693020D02*
X669560D01*
X669560Y667620D02*
X727980D01*
X729250D01*
Y668890D01*
X765882D01*
X679233Y541890D02*
X766050D01*
X766050Y516490D02*
X676460D01*
Y462877D01*
X689880Y449457D01*
Y395840D01*
X664480D01*
Y426320D02*
Y452230D01*
X660460Y456250D01*
Y523118D01*
X679233Y541890D01*
X727980Y490860D02*
X765820D01*
X766050Y491090D01*
X769890D01*
X794020Y466960D01*
Y284080D01*
X837200Y240900D01*
X773700D02*
Y337420D01*
X733060Y378060D01*
Y464420D01*
X733060Y464420D01*
X734330Y465690D01*
X766050D01*
X734330D02*
X699810D01*
X694960Y470540D01*
X639080Y426320D02*
X613680D01*
X595900Y408540D01*
X590820D01*
X565420Y418644D02*
X580716Y433940D01*
X590820D01*
X565420Y418644D02*
Y356270D01*
X585598Y336093D01*
X639080D01*
Y395840D01*
Y398380D01*
X506220Y363600D02*
Y604810D01*
X589350Y687940D01*
X590820D01*
X669560Y667620D02*
X669560Y667620D01*
D14*
X921630Y694290D02*
X983250D01*
X994680Y682860D01*
X1002300D01*
Y720960D02*
X922900D01*
X921630Y719690D01*
D15*
X444770Y1004170D02*
D03*
D16*
X367300Y935590D02*
D03*
D17*
X766050Y389490D02*
D03*
Y414890D02*
D03*
Y440290D02*
D03*
Y465690D02*
D03*
Y491090D02*
D03*
Y516490D02*
D03*
X766050Y541890D02*
D03*
X766050Y567290D02*
D03*
Y592690D02*
D03*
Y618090D02*
D03*
Y643490D02*
D03*
Y668890D02*
D03*
Y694290D02*
D03*
Y719690D02*
D03*
Y745090D02*
D03*
X766050Y770490D02*
D03*
X766050Y795890D02*
D03*
Y821290D02*
D03*
Y846690D02*
D03*
X921630Y694290D02*
D03*
Y668890D02*
D03*
Y643490D02*
D03*
Y618090D02*
D03*
Y592690D02*
D03*
Y567290D02*
D03*
Y541890D02*
D03*
Y516490D02*
D03*
Y491090D02*
D03*
Y465690D02*
D03*
Y440290D02*
D03*
Y414890D02*
D03*
Y389490D02*
D03*
Y719690D02*
D03*
Y745090D02*
D03*
Y770490D02*
D03*
Y795890D02*
D03*
Y821290D02*
D03*
Y846690D02*
D03*
Y872090D02*
D03*
D18*
X766050Y872090D02*
D03*
D19*
X362220Y713340D02*
D03*
D20*
X362220Y357740D02*
D03*
X362220Y383140D02*
D03*
X362220Y408540D02*
D03*
Y433940D02*
D03*
Y459340D02*
D03*
X362220Y484740D02*
D03*
X362220Y510140D02*
D03*
Y535540D02*
D03*
Y560940D02*
D03*
Y586340D02*
D03*
Y611740D02*
D03*
Y637140D02*
D03*
Y662540D02*
D03*
Y687940D02*
D03*
X590820Y459340D02*
D03*
Y433940D02*
D03*
Y408540D02*
D03*
X590820Y383140D02*
D03*
X590820Y357740D02*
D03*
X590820Y484740D02*
D03*
X590820Y510140D02*
D03*
Y535540D02*
D03*
Y560940D02*
D03*
Y586340D02*
D03*
Y611740D02*
D03*
Y637140D02*
D03*
Y662540D02*
D03*
Y687940D02*
D03*
Y713340D02*
D03*
D21*
X562880Y941940D02*
D03*
X989600Y1038460D02*
D03*
D22*
X613680Y941940D02*
D03*
X588280D02*
D03*
X1015000Y1038460D02*
D03*
X1040400D02*
D03*
D23*
X733060Y240900D02*
D03*
X773700D02*
D03*
X837200D02*
D03*
X877840D02*
D03*
X1177560Y345040D02*
D03*
Y385680D02*
D03*
Y464420D02*
D03*
Y505060D02*
D03*
Y583800D02*
D03*
Y624440D02*
D03*
Y703180D02*
D03*
Y743820D02*
D03*
Y921620D02*
D03*
Y962260D02*
D03*
X885460Y1068940D02*
D03*
X844820D02*
D03*
D24*
X430800Y939400D02*
D03*
Y1000360D02*
D03*
D25*
X381270Y972420D02*
D03*
D26*
X639080Y395840D02*
D03*
X664480D02*
D03*
Y426320D02*
D03*
X639080D02*
D03*
X694960Y470540D02*
D03*
X727980Y490860D02*
D03*
X694960Y600540D02*
D03*
X727980Y620860D02*
D03*
X669560Y718420D02*
D03*
Y693020D02*
D03*
Y667620D02*
D03*
Y743820D02*
D03*
Y769220D02*
D03*
Y794620D02*
D03*
X1012460Y772800D02*
D03*
Y902800D02*
D03*
X938800Y296780D02*
D03*
X964200D02*
D03*
X989600D02*
D03*
X1015000D02*
D03*
D27*
X509540Y929240D02*
D03*
X509540Y980040D02*
D03*
D28*
X1063260Y868280D02*
D03*
Y893680D02*
D03*
Y919080D02*
D03*
X1081040Y756520D02*
D03*
X1106440D02*
D03*
X1131840D02*
D03*
X1081040Y694834D02*
D03*
X1106440D02*
D03*
X1131840D02*
D03*
X1106440Y633148D02*
D03*
X1131840D02*
D03*
X1106440Y571462D02*
D03*
X1131840D02*
D03*
X1081040Y633148D02*
D03*
Y571462D02*
D03*
Y509777D02*
D03*
X1106440D02*
D03*
X1131840D02*
D03*
X1106440Y448091D02*
D03*
X1131840D02*
D03*
X1106440Y386406D02*
D03*
X1131840D02*
D03*
X1106440Y324720D02*
D03*
X1131840D02*
D03*
X1081040Y386406D02*
D03*
Y324720D02*
D03*
Y448091D02*
D03*
D29*
X550180Y225660D02*
D03*
X1154700D02*
D03*
Y1094340D02*
D03*
X550180D02*
D03*
M02*
