M48
;Layer_Color=9474304
;FILE_FORMAT=4:4
METRIC,LZ
;TYPE=PLATED
T1F00S00C0.7590
T2F00S00C0.8000
T3F00S00C0.8128
T4F00S00C0.8350
T6F00S00C1.2300
T7F00S00C1.5000
T8F00S00C3.0000
%
T01
X0076605Y0038949
X0092163
Y0041489
Y0044029
Y0046569
Y0049109
Y0051649
Y0054189
Y0056729
Y0059269
Y0061809
Y0064349
Y0066889
Y0069429
Y0071969
Y0074509
Y0077049
X0076605
X0076605Y0074509
Y0071969
Y0069429
Y0066889
Y0064349
Y0061809
Y0059269
Y0056729
X0076605Y0054189
X0076605Y0051649
Y0049109
Y0046569
Y0044029
Y0041489
Y0079589
Y0082129
Y0084669
Y0087209
X0092163
Y0084669
Y0082129
Y0079589
T02
X0063908Y0039584
X0066448
X009388Y0029678
X009642
X009896
X01015
X0101246Y007728
X0066956Y0076922
Y0074382
Y0071842
Y0069302
Y0066762
X0069496Y0060054
X0072798Y0062086
Y0049086
X0069496Y0047054
X0066448Y0042632
X0063908
X0066956Y0079462
X0101246Y009028
T03
X0108104Y0032472
X0110644
X0113184
Y00386406
X0110644
X0108104
Y00448091
X0110644
X0113184
Y00509777
X0110644
X0108104
Y00571462
X0110644
X0113184
Y00633148
X0110644
X0108104
Y00694834
X0110644
X0113184
Y0075652
X0110644
X0108104
X0106326Y0086828
Y0089368
Y0091908
T04
X0036222Y0035774
X0036222Y0038314
X0059082
X0059082Y0035774
Y0040854
Y0043394
Y0045934
X0059082Y0048474
X0059082Y0051014
Y0053554
Y0056094
Y0058634
Y0061174
Y0063714
Y0066254
Y0068794
Y0071334
X0036222Y0071334
X0036222Y0068794
Y0066254
Y0063714
Y0061174
Y0058634
Y0056094
Y0053554
Y0051014
X0036222Y0048474
X0036222Y0045934
Y0043394
Y0040854
T06
X0056288Y0094194
X0058828
X0061368
X009896Y0103846
X01015
X010404
T07
X0073306Y002409
X007737
X008372
X0087784
X0117756Y0034504
Y0038568
Y0046442
Y0050506
Y005838
Y0062444
Y0070318
Y0074382
X0050954Y0092924
X0050954Y0098004
X0084482Y0106894
X0088546
X0117756Y0096226
Y0092162
T08
X0055018Y0022566
X011547
X0055018Y0109434
X011547
M30
