G04 Layer_Color=65535*
%FSLAX44Y44*%
%MOMM*%
G71*
G01*
G75*
%ADD27C,0.2540*%
%ADD28C,0.1000*%
%ADD29C,0.1270*%
%ADD30C,0.2000*%
D27*
X621299Y383140D02*
X618760Y385679D01*
X621299Y383140D02*
X623838D01*
X626377Y385679D01*
Y398375D01*
X623838D01*
X628917D01*
X636534D02*
X633995Y395836D01*
X636534Y398375D02*
Y383140D01*
X639073D01*
X633995D01*
X646691D02*
X656848Y393297D01*
Y395836D01*
X654308Y398375D01*
X649230D01*
X646691Y395836D01*
Y383140D02*
X656848D01*
X727977Y454260D02*
X722898Y459338D01*
X725437D02*
X717820D01*
Y454260D02*
Y469495D01*
X725437D01*
X727977Y466956D01*
Y461878D01*
X725437Y459338D01*
X733055Y456799D02*
X735594Y454260D01*
X740673D01*
X743212Y456799D01*
Y466956D01*
X740673Y469495D01*
X735594D01*
X733055Y466956D01*
Y464417D01*
X735594Y461878D01*
X743212D01*
X704960Y498040D02*
Y573040D01*
X684960D01*
Y498040D01*
X694960D01*
X704960D01*
X727980Y505860D02*
Y518360D01*
X737980D01*
Y593360D01*
X717980D01*
Y518360D01*
X727980D01*
X694960Y573040D02*
Y585540D01*
X679708Y586336D02*
Y576179D01*
X677169Y573640D01*
X672090D01*
X669551Y576179D01*
Y586336D01*
X672090Y588875D01*
X677169D01*
X679708Y586336D01*
X659394Y588875D02*
X656855Y586336D01*
X651777D02*
Y581258D01*
X649238Y578718D01*
X641620D01*
Y573640D02*
Y588875D01*
X649238D01*
X651777Y586336D01*
Y573640D02*
X646698Y578718D01*
X656855Y573640D02*
X661933D01*
X659394D01*
Y588875D01*
X658869Y665480D02*
X661408Y668019D01*
Y670558D01*
X658869Y673098D01*
X651251D01*
Y668019D01*
X653790Y665480D01*
X658869D01*
X643633Y668019D02*
X641094Y665480D01*
X638555D01*
X636016Y668019D01*
X643633D02*
Y680715D01*
X641094D01*
X646173D01*
X656329Y678176D02*
X651251Y673098D01*
X656329Y678176D02*
X661408Y680715D01*
X727980Y605860D02*
Y593360D01*
X651768Y482195D02*
X654308Y479656D01*
Y477117D01*
X651768Y474577D01*
X649229D01*
X651768D01*
X654308Y472038D01*
Y469499D01*
X651768Y466960D01*
X646690D01*
X644151Y469499D01*
X694960Y485540D02*
Y498040D01*
X651768Y482195D02*
X646690D01*
X644151Y479656D01*
X633994Y482195D02*
X631455Y479656D01*
X633994Y482195D02*
Y466960D01*
X636533D01*
X631455D01*
X623838Y469499D02*
X621298Y466960D01*
X618759D01*
X616220Y469499D01*
X623838D02*
Y482195D01*
X621298D01*
X626377D01*
X777480Y367900D02*
X777480Y897490D01*
X910830D01*
Y367900D01*
X777480D01*
X778510Y265937D02*
X781049Y263398D01*
X783588D01*
X786127Y265937D01*
Y278633D01*
X783588D01*
X788667D01*
X796284D02*
X793745Y276094D01*
X796284Y278633D02*
Y263398D01*
X798823D01*
X793745D01*
X808980D02*
X806441Y265937D01*
Y276094D01*
X808980Y278633D01*
X814059D01*
X816598Y276094D01*
Y265937D01*
X814059Y263398D01*
X808980D01*
X885189Y263398D02*
X882650Y265937D01*
X885189Y263398D02*
X887728D01*
X890267Y265937D01*
Y278633D01*
X887728D01*
X892806D01*
X900424D02*
X897885Y276094D01*
Y273555D01*
X900424Y271016D01*
X908042D01*
Y265937D02*
Y276094D01*
X905502Y278633D01*
X900424D01*
X897885Y265937D02*
X900424Y263398D01*
X905502D01*
X908042Y265937D01*
X1089406Y325119D02*
X1091945Y322580D01*
X1097023D01*
X1099563Y325119D01*
Y335276D01*
X1097023Y337815D01*
X1091945D01*
X1089406Y335276D01*
Y325119D01*
X1094484Y327658D02*
X1099563Y322580D01*
X1107180D02*
X1104641Y325119D01*
Y327658D01*
X1107180Y330197D01*
X1104641Y332737D01*
Y335276D01*
X1107180Y337815D01*
X1112259D01*
X1114798Y335276D01*
Y332737D01*
X1112259Y330197D01*
X1114798Y327658D01*
Y325119D01*
X1112259Y322580D01*
X1107180D01*
Y330197D02*
X1112259D01*
X1133926Y311768D02*
G03*
X1136055Y308519I23314J12952D01*
G01*
X1136055Y308519D02*
X1178576D01*
X1178576Y308718D02*
G03*
X1180841Y312299I-21336J16002D01*
G01*
X1180554Y337672D02*
G03*
X1133639Y337141I-23314J-12952D01*
G01*
X1133926Y373454D02*
G03*
X1136055Y370205I23314J12952D01*
G01*
X1136055D02*
X1178576D01*
X1178576Y370404D02*
G03*
X1180841Y373984I-21336J16002D01*
G01*
X1218437Y418846D02*
X1215898Y421385D01*
X1223515D02*
X1220976Y418846D01*
X1218437D01*
X1238751D02*
Y434081D01*
X1231133Y426464D01*
X1241290D01*
X1226055Y434081D02*
X1220976D01*
X1223515D01*
Y421385D01*
X1180554Y461044D02*
G03*
X1133639Y460513I-23314J-12952D01*
G01*
X1133926Y435139D02*
G03*
X1136055Y431891I23314J12952D01*
G01*
X1136055Y431890D02*
X1178576D01*
X1178576Y432089D02*
G03*
X1180841Y435670I-21336J16002D01*
G01*
X1180554Y399358D02*
G03*
X1133639Y398827I-23314J-12952D01*
G01*
X1112259Y445770D02*
X1114798Y448309D01*
Y450848D01*
X1112259Y453387D01*
X1104641D01*
Y448309D01*
X1107180Y445770D01*
X1112259D01*
X1099563D02*
X1094484Y450848D01*
X1099563Y448309D02*
Y458466D01*
X1097023Y461005D01*
X1091945D01*
X1089406Y458466D01*
Y448309D01*
X1091945Y445770D01*
X1097023D01*
X1099563Y448309D01*
X1104641Y453387D02*
X1109719Y458466D01*
X1114798Y461005D01*
X1133926Y496825D02*
G03*
X1136055Y493576I23314J12952D01*
G01*
X1136055Y493576D02*
X1178576D01*
X1178576Y493775D02*
G03*
X1180841Y497356I-21336J16002D01*
G01*
X1180554Y522729D02*
G03*
X1133639Y522199I-23314J-12952D01*
G01*
X1136055Y555262D02*
X1178576D01*
X1178576Y555461D02*
G03*
X1180841Y559041I-21336J16002D01*
G01*
X1180554Y584415D02*
G03*
X1133639Y583884I-23314J-12952D01*
G01*
X1133926Y558511D02*
G03*
X1136055Y555262I23314J12952D01*
G01*
X1112259Y569214D02*
Y584449D01*
X1104641Y576832D01*
X1114798D01*
X1099563Y571753D02*
Y581910D01*
X1097023Y584449D01*
X1091945D01*
X1089406Y581910D01*
Y571753D01*
X1091945Y569214D01*
X1097023D01*
X1099563Y571753D01*
Y569214D02*
X1094484Y574292D01*
X1089406Y520188D02*
Y510031D01*
X1091945Y507492D01*
X1097023D01*
X1099563Y510031D01*
Y520188D01*
X1097023Y522727D01*
X1091945D01*
X1089406Y520188D01*
X1094484Y512570D02*
X1099563Y507492D01*
X1107180D02*
X1104641Y510031D01*
Y515109D02*
X1109719Y517649D01*
X1112259D01*
X1114798Y515109D01*
Y510031D01*
X1112259Y507492D01*
X1107180D01*
X1104641Y515109D02*
Y522727D01*
X1114798D01*
X1089406Y396744D02*
Y386587D01*
X1091945Y384048D01*
X1097023D01*
X1099563Y386587D01*
Y396744D01*
X1097023Y399283D01*
X1091945D01*
X1089406Y396744D01*
X1094484Y389126D02*
X1099563Y384048D01*
X1104641D02*
Y386587D01*
X1114798Y396744D01*
Y399283D01*
X1104641D01*
X1233672Y538226D02*
X1231133Y540765D01*
X1233672Y538226D02*
X1238751D01*
X1241290Y540765D01*
Y543304D01*
X1238751Y545844D01*
X1236211D01*
X1238751D01*
X1241290Y548383D01*
Y550922D01*
X1238751Y553461D01*
X1233672D01*
X1231133Y550922D01*
X1226055Y553461D02*
X1220976D01*
X1223515D01*
Y540765D01*
X1220976Y538226D01*
X1218437D01*
X1215898Y540765D01*
X1178576Y616948D02*
X1136055D01*
X1133926Y620196D02*
G03*
X1136055Y616948I23314J12952D01*
G01*
X1180554Y646101D02*
G03*
X1133639Y645570I-23314J-12952D01*
G01*
X1136055Y678633D02*
X1178576D01*
X1178576Y678832D02*
G03*
X1180841Y682413I-21336J16002D01*
G01*
X1215898Y660145D02*
X1218437Y657606D01*
X1220976D01*
X1223515Y660145D01*
Y672841D01*
X1220976D01*
X1226055D01*
X1231133Y670302D02*
X1233672Y672841D01*
X1238751D01*
X1241290Y670302D01*
Y667763D01*
X1231133Y657606D01*
X1241290D01*
X1180554Y707786D02*
G03*
X1133639Y707256I-23314J-12952D01*
G01*
X1133926Y681882D02*
G03*
X1136055Y678633I23314J12952D01*
G01*
X1114798Y702815D02*
Y705354D01*
X1112259Y707893D01*
X1107180D01*
X1104641Y705354D01*
X1099563D02*
X1097023Y707893D01*
X1091945D01*
X1089406Y705354D01*
Y695197D01*
X1091945Y692658D01*
X1097023D01*
X1099563Y695197D01*
Y705354D01*
X1114798Y702815D02*
X1104641Y692658D01*
X1114798D01*
X1099563D02*
X1094484Y697736D01*
X1091945Y646171D02*
X1089406Y643632D01*
Y633475D01*
X1091945Y630936D01*
X1097023D01*
X1099563Y633475D01*
Y643632D01*
X1097023Y646171D01*
X1091945D01*
X1104641Y643632D02*
X1107180Y646171D01*
X1112259D01*
X1114798Y643632D01*
Y641093D01*
X1112259Y638554D01*
X1109719D01*
X1112259D01*
X1114798Y636014D01*
Y633475D01*
X1112259Y630936D01*
X1107180D01*
X1104641Y633475D01*
X1099563Y630936D02*
X1094484Y636014D01*
X1178576Y617146D02*
G03*
X1180841Y620727I-21336J16002D01*
G01*
X1178576Y740319D02*
X1136055D01*
X1133926Y743568D02*
G03*
X1136055Y740319I23314J12952D01*
G01*
X1180554Y769472D02*
G03*
X1133639Y768941I-23314J-12952D01*
G01*
X1112260Y769615D02*
X1109721Y767076D01*
X1104643D02*
X1102104Y769615D01*
X1097025D01*
X1094486Y767076D01*
Y756919D01*
X1097025Y754380D01*
X1102104D01*
X1104643Y756919D01*
Y767076D01*
X1112260Y769615D02*
Y754380D01*
X1114799D01*
X1109721D01*
X1104643D02*
X1099564Y759458D01*
X1065788Y825099D02*
X1063249Y822560D01*
X1058170D01*
X1055631Y825099D01*
Y835256D02*
X1058170Y837795D01*
X1063249D01*
X1065788Y835256D01*
Y832717D01*
X1063249Y830178D01*
X1060709D01*
X1063249D01*
X1065788Y827638D01*
Y825099D01*
X1048013Y822560D02*
X1045474D01*
Y837795D01*
X1042935Y835256D01*
X1037857D02*
Y830178D01*
X1035318Y827638D01*
X1027700D01*
Y822560D02*
Y837795D01*
X1035318D01*
X1037857Y835256D01*
Y822560D02*
X1032778Y827638D01*
X1022460Y800300D02*
Y875300D01*
X1002460D01*
Y800300D01*
X1012460D01*
X1022460D01*
X1012460D02*
Y787800D01*
X1042935Y822560D02*
X1048013D01*
X1076212Y870366D02*
G03*
X1079461Y872495I-12952J23314D01*
G01*
X1079461Y872495D02*
Y915016D01*
X1079262Y915016D02*
G03*
X1075682Y917281I-16002J-21336D01*
G01*
X1075170Y938529D02*
X1072630Y935990D01*
X1067552D01*
X1065013Y938529D01*
Y948686D02*
X1067552Y951225D01*
X1072630D01*
X1075170Y948686D01*
Y946147D01*
X1072630Y943607D01*
X1070091D01*
X1072630D01*
X1075170Y941068D01*
Y938529D01*
X1054856Y951225D02*
X1052317Y948686D01*
X1047239D02*
X1044699Y951225D01*
X1039621D01*
X1037082Y948686D01*
Y938529D01*
X1039621Y935990D01*
X1044699D01*
X1047239Y938529D01*
Y948686D01*
Y935990D02*
X1042160Y941068D01*
X1052317Y935990D02*
X1057395D01*
X1054856D01*
Y951225D01*
X1050308Y916994D02*
G03*
X1050838Y870079I12952J-23314D01*
G01*
X1012460Y875300D02*
Y887800D01*
X989064Y916940D02*
Y932175D01*
X981447Y924557D01*
X991604D01*
X971290Y932175D02*
X968751Y929636D01*
X971290Y932175D02*
Y916940D01*
X973829D01*
X968751D01*
X961133Y919479D02*
X958594Y916940D01*
X956055D01*
X953516Y919479D01*
X961133D02*
Y932175D01*
X958594D01*
X963673D01*
X875289Y1020680D02*
X872750D01*
Y1035915D01*
X870211Y1033376D01*
Y1020680D02*
X875289D01*
X860054Y1035915D02*
X857515Y1033376D01*
Y1020680D02*
X862593D01*
X860054D01*
Y1035915D01*
X852437D02*
X847358D01*
X849898D01*
Y1023219D01*
X847358Y1020680D01*
X844819D01*
X842280Y1023219D01*
X781297Y921507D02*
X776218D01*
X773679Y918968D01*
X768601Y921507D02*
Y908811D01*
X766061Y906272D01*
X760983D01*
X758444Y908811D01*
Y921507D01*
X781297D02*
X783836Y918968D01*
Y916429D01*
X773679Y906272D01*
X783836D01*
X787422Y882250D02*
G03*
X787422Y882250I-3592J0D01*
G01*
X832090Y897490D02*
G03*
X852410Y897490I10160J0D01*
G01*
X714748Y812795D02*
Y810256D01*
X704591Y800099D01*
Y797560D01*
Y812795D02*
X714748D01*
X699513D02*
X694434D01*
X696973D01*
Y800099D01*
X694434Y797560D01*
X691895D01*
X689356Y800099D01*
X527310Y908915D02*
X524771Y906376D01*
X527310Y908915D02*
Y893680D01*
X529849D01*
X524771D01*
X517153D02*
X514614D01*
Y908915D01*
X512075Y906376D01*
X506997D02*
Y901298D01*
X504458Y898758D01*
X496840D01*
Y908915D02*
X504458D01*
X506997Y906376D01*
X512075Y893680D02*
X517153D01*
X496840Y908915D02*
Y893680D01*
X593354Y982580D02*
X590815Y985119D01*
Y995276D01*
X593354Y997815D01*
X598433D01*
X600972Y995276D01*
Y985119D01*
X598433Y982580D01*
X593354D01*
X585737D02*
X580658Y987658D01*
X575580Y985119D02*
X578119Y982580D01*
X583198D01*
X585737Y985119D01*
Y995276D01*
X583198Y997815D01*
X578119D01*
X575580Y995276D01*
Y985119D01*
X534928Y1015597D02*
Y1018136D01*
X532388Y1020675D01*
X527310D01*
X524771Y1018136D01*
X514614Y1020675D02*
X512075Y1018136D01*
X506997D02*
Y1013057D01*
X504458Y1010518D01*
X496840D01*
Y1020675D02*
X504458D01*
X506997Y1018136D01*
X514614Y1020675D02*
Y1005440D01*
X517153D01*
X512075D01*
X524771D02*
X534928Y1015597D01*
Y1005440D02*
X524771D01*
X496840Y1020675D02*
Y1005440D01*
X394709Y1088898D02*
X389630D01*
X387091Y1091437D01*
Y1101594D01*
X389630Y1104133D01*
X394709D01*
X397248Y1101594D01*
Y1091437D01*
X394709Y1088898D01*
X379473Y1091437D02*
X376934Y1088898D01*
X374395D01*
X371856Y1091437D01*
X379473D02*
Y1104133D01*
X376934D01*
X382013D01*
X358642Y804159D02*
X356103Y801620D01*
X358642Y804159D02*
Y788924D01*
X361181D01*
X356103D01*
X348485D02*
X351025Y791463D01*
Y804159D01*
X340868D02*
Y791463D01*
X343407Y788924D01*
X348485D01*
X1178576Y740518D02*
G03*
X1180841Y744099I-21336J16002D01*
G01*
X1218437Y776986D02*
X1215898Y779525D01*
X1218437Y776986D02*
X1220976D01*
X1223515Y779525D01*
Y792221D01*
X1220976D01*
X1226055D01*
X1231133Y776986D02*
X1236211D01*
X1233672D01*
Y792221D01*
X1231133Y789682D01*
X1233672Y995426D02*
X1231133Y997965D01*
Y1003044D02*
X1236211Y1005583D01*
X1238751D01*
X1241290Y1003044D01*
Y997965D01*
X1238751Y995426D01*
X1233672D01*
X1231133Y1003044D02*
Y1010661D01*
X1241290D01*
X1226055D02*
X1220976D01*
X1223515D01*
Y997965D01*
X1220976Y995426D01*
X1218437D01*
X1215898Y997965D01*
D28*
X611140Y403460D02*
Y428860D01*
X661940D01*
Y403460D01*
X611140D01*
Y436480D02*
Y461880D01*
X661940D01*
Y436480D01*
X611140D01*
X659400Y606660D02*
Y657460D01*
X634000D01*
Y606660D01*
X659400D01*
X712740Y687940D02*
X712740Y789540D01*
X687340D01*
X687340Y687940D01*
X712740D01*
X951500Y858120D02*
Y908920D01*
X976900Y908920D01*
X976900Y858120D01*
X951500D01*
D29*
X640350Y926700D02*
X640350Y974960D01*
X536210D01*
Y926700D01*
X640350D01*
D30*
X476520Y934320D02*
Y1080370D01*
X378730D01*
Y996550D01*
Y949560D02*
Y934320D01*
X405400D01*
X456200D02*
X476520D01*
M02*
