G04 Layer_Color=65535*
%FSLAX44Y44*%
%MOMM*%
G71*
G01*
G75*
%ADD30C,0.2540*%
%ADD31C,0.1270*%
%ADD32C,0.2000*%
%ADD33C,0.1000*%
D30*
X636539Y362820D02*
X634000Y365359D01*
X636539Y362820D02*
X639079D01*
X641618Y365359D01*
Y378055D01*
X639079D01*
X644157D01*
X649235Y375516D02*
X651775Y378055D01*
Y362820D01*
X654314D01*
X649235D01*
X661931D02*
X672088Y372977D01*
Y375516D01*
X669549Y378055D01*
X664470D01*
X661931Y375516D01*
Y362820D02*
X672088D01*
X684800Y388220D02*
Y403455D01*
X692418D01*
X694957Y400916D01*
Y395838D01*
X692418Y393299D01*
X684800D01*
X689879D02*
X694957Y388220D01*
X700035D02*
X710192Y398377D01*
X715270Y403455D02*
X725427D01*
X720349D01*
Y388220D01*
X722887Y416160D02*
X717809Y421238D01*
X720348D02*
X712730D01*
Y416160D02*
Y431395D01*
X720348D01*
X722887Y428856D01*
Y423778D01*
X720348Y421238D01*
X707652Y426317D02*
X697495Y416160D01*
X687338D02*
Y431395D01*
X692417D01*
X682260D01*
X717820Y459340D02*
Y474575D01*
X725437D01*
X727977Y472036D01*
Y466958D01*
X725437Y464418D01*
X717820D01*
X722898D02*
X727977Y459340D01*
X733055Y461879D02*
X735594Y459340D01*
X740673D01*
X743212Y461879D01*
Y472036D01*
X740673Y474575D01*
X735594D01*
X733055Y472036D01*
Y469497D01*
X735594Y466958D01*
X743212D01*
X727980Y505860D02*
Y518360D01*
X737980D01*
Y593360D01*
X717980D01*
Y518360D01*
X727980D01*
X704960Y498040D02*
Y573040D01*
X684960D01*
Y498040D01*
X694960D01*
X704960D01*
X677168Y535539D02*
X674629Y533000D01*
X669550D01*
X667011Y535539D01*
Y545696D01*
X669550Y548235D01*
X674629D01*
X677168Y545696D01*
Y535539D01*
X694960Y498040D02*
Y485540D01*
X659393Y533000D02*
X656854D01*
Y548235D01*
X654315Y545696D01*
X649237D02*
Y540617D01*
X646697Y538078D01*
X639080D01*
Y533000D02*
Y548235D01*
X646697D01*
X649237Y545696D01*
Y533000D02*
X644158Y538078D01*
X654315Y533000D02*
X659393D01*
X641617Y459335D02*
X636538D01*
X639077D01*
Y446639D01*
X636538Y444100D01*
X633999D01*
X631460Y446639D01*
X646695Y444100D02*
X651773D01*
X649234D01*
Y459335D01*
X646695Y456796D01*
X659391D02*
X661930Y459335D01*
X667009D01*
X669548Y456796D01*
Y454257D01*
X667009Y451717D01*
X664469D01*
X667009D01*
X669548Y449178D01*
Y446639D01*
X667009Y444100D01*
X661930D01*
X659391Y446639D01*
X777480Y367900D02*
X910830D01*
Y897490D01*
X777480D01*
X777480Y367900D01*
X750824Y296777D02*
X758442D01*
X766059D02*
X773677D01*
X766059D02*
X763520Y294237D01*
X766059Y291698D01*
X771138D01*
X773677Y289159D01*
X771138Y286620D01*
X763520D01*
X755903D02*
X758442Y289159D01*
X755903Y291698D01*
X750824D01*
X748285Y294237D01*
X750824Y296777D01*
X740668D02*
X743207Y294237D01*
Y291698D01*
X733050D01*
Y289159D02*
Y294237D01*
X735589Y296777D01*
X740668D01*
Y286620D02*
X735589D01*
X733050Y289159D01*
Y278995D02*
X738129D01*
X740668Y276456D01*
Y266299D01*
X738129Y263760D01*
X733050D01*
X730511Y266299D01*
Y276456D01*
X733050Y278995D01*
X748285Y286620D02*
X755903D01*
X778755D02*
X786373D01*
X788912Y289159D01*
Y299316D01*
X786373Y301855D01*
X778755D01*
Y286620D01*
X827040D02*
X832118Y291698D01*
X837197Y286620D01*
Y301855D01*
X857510D02*
Y286620D01*
X867667D01*
X877824D02*
X882902Y296777D01*
X887980Y301855D02*
X890519D01*
Y286620D01*
X893059D01*
X887980D01*
X877824D02*
X872745Y296777D01*
X862592Y276456D02*
X860053Y278995D01*
X854974D01*
X852435Y276456D01*
Y273917D01*
X854974Y271378D01*
X862592D01*
Y276456D02*
Y266299D01*
X860053Y263760D01*
X854974D01*
X852435Y266299D01*
X844818D02*
X842278Y263760D01*
X839739D01*
X837200Y266299D01*
X844818D02*
Y278995D01*
X842278D01*
X847357D01*
X852432Y284081D02*
X842275D01*
X827040Y301855D02*
Y286620D01*
X928640Y263759D02*
X931179Y261220D01*
X933718D01*
X936257Y263759D01*
Y276455D01*
X933718D01*
X938797D01*
X943875Y266298D02*
X946414Y268838D01*
X943875Y271377D01*
Y273916D01*
X946414Y276455D01*
X951493D01*
X954032Y273916D01*
Y271377D01*
X951493Y268838D01*
X954032Y266298D01*
Y263759D01*
X951493Y261220D01*
X946414D01*
X943875Y263759D01*
Y266298D01*
X946414Y268838D02*
X951493D01*
X987060Y261220D02*
X992138D01*
X989599D02*
X987060D01*
X989599D02*
Y276455D01*
X992138D01*
X987060D01*
X999756Y261220D02*
X1009913Y271377D01*
Y273916D01*
X1007373Y276455D01*
X1002295D01*
X999756Y273916D01*
X1014991D02*
Y263759D01*
X1017530Y261220D01*
X1022608D01*
X1025148Y263759D01*
Y273916D02*
X1022608Y276455D01*
X1017530D01*
X1014991Y273916D01*
X1009913Y261220D02*
X999756D01*
X1056380Y322580D02*
X1053841Y325119D01*
Y327658D01*
X1056380Y330197D01*
X1053841Y332737D01*
Y335276D01*
X1056380Y337815D01*
X1061459D01*
X1063998Y335276D01*
Y332737D01*
X1061459Y330197D01*
X1063998Y327658D01*
Y325119D01*
X1061459Y322580D01*
X1056380D01*
X1083126Y311768D02*
G03*
X1085255Y308519I23314J12952D01*
G01*
X1085255Y308519D02*
X1127776D01*
X1127776Y308718D02*
G03*
X1130041Y312299I-21336J16002D01*
G01*
X1129754Y337672D02*
G03*
X1082839Y337141I-23314J-12952D01*
G01*
X1127776Y370205D02*
X1085255D01*
X1083126Y373454D02*
G03*
X1085255Y370205I23314J12952D01*
G01*
X1127776Y370404D02*
G03*
X1130041Y373984I-21336J16002D01*
G01*
X1129754Y399358D02*
G03*
X1082839Y398827I-23314J-12952D01*
G01*
X1063998Y399283D02*
Y396744D01*
X1053841Y386587D01*
Y384048D01*
Y399283D02*
X1063998D01*
X1048763Y396744D02*
X1046224Y399283D01*
X1041145D01*
X1038606Y396744D01*
Y386587D01*
X1041145Y384048D01*
X1046224D01*
X1048763Y386587D01*
Y396744D01*
Y384048D02*
X1043684Y389126D01*
X1022620Y355187D02*
X1015003D01*
Y345030D01*
X1012463D02*
X1007385Y350108D01*
X1012463Y355187D01*
X1022620D01*
X997220D02*
Y345030D01*
X981985D01*
X984524Y339952D02*
X981985Y337413D01*
Y332334D01*
X984524Y329795D01*
X994681D01*
X997220Y332334D01*
Y337413D01*
X994681Y339952D01*
Y324717D02*
X997220Y322178D01*
Y317099D01*
X994681Y314560D01*
X987063D02*
X989603Y317099D01*
Y322178D01*
X992142Y324717D01*
X994681D01*
X984524D02*
X981985Y322178D01*
Y317099D01*
X984524Y314560D01*
X987063D01*
X971820Y317099D02*
X969281Y314560D01*
X971820Y317099D02*
Y322178D01*
X969281Y324717D01*
X964202D01*
X961663Y322178D01*
Y319638D01*
X964202Y314560D01*
X956585D01*
Y324717D01*
Y329795D02*
X966742D01*
X971820Y334873D01*
X966742Y339952D01*
X956585D01*
X946420D02*
X931185D01*
Y345030D02*
X946420D01*
Y352648D01*
X943881Y355187D01*
X933724D01*
X931185Y352648D01*
Y345030D01*
Y329795D02*
X946420Y339952D01*
Y329795D02*
X931185D01*
X933724Y324717D02*
X931185Y322178D01*
Y317099D01*
X933724Y314560D01*
X943881D01*
X946420Y317099D01*
Y322178D01*
X943881Y324717D01*
X938802D01*
Y319638D01*
X1007385Y317099D02*
X1009924Y314560D01*
X1012463D01*
X1015003Y317099D01*
Y322178D01*
X1017542Y324717D01*
X1020081D01*
X1022620Y322178D01*
Y317099D01*
X1020081Y314560D01*
X1007385Y317099D02*
Y322178D01*
X1009924Y324717D01*
X1007385Y329795D02*
X1022620D01*
Y337413D01*
X1020081Y339952D01*
X1009924D01*
X1007385Y337413D01*
Y329795D01*
X1012463Y345030D02*
X1022620D01*
X1041145Y322580D02*
X1046224D01*
X1048763Y325119D01*
Y335276D01*
X1046224Y337815D01*
X1041145D01*
X1038606Y335276D01*
Y325119D01*
X1041145Y322580D01*
X1048763D02*
X1043684Y327658D01*
X1056380Y330197D02*
X1061459D01*
X1147079Y413620D02*
X1144540Y416159D01*
X1147079Y413620D02*
X1149618D01*
X1152158Y416159D01*
Y428855D01*
X1149618D01*
X1154697D01*
X1167393D02*
X1159775Y421237D01*
X1169932D01*
X1167393Y413620D02*
Y428855D01*
X1180100D02*
X1187718D01*
X1190257Y426316D01*
Y421237D01*
X1187718Y418698D01*
X1180100D01*
Y413620D02*
Y428855D01*
X1195335D02*
X1205492D01*
Y426316D01*
X1195335Y416159D01*
Y413620D01*
X1210570D02*
X1220727Y423777D01*
X1225805D02*
Y426316D01*
X1228344Y428855D01*
X1233423D01*
X1235962Y426316D01*
Y423777D01*
X1233423Y421237D01*
X1235962Y418698D01*
Y416159D01*
X1233423Y413620D01*
X1228344D01*
X1225805Y416159D01*
Y418698D01*
X1228344Y421237D01*
X1225805Y423777D01*
X1228344Y421237D02*
X1233423D01*
Y535540D02*
X1235962Y538079D01*
Y540618D01*
X1233423Y543158D01*
X1225805D01*
Y538079D01*
X1228344Y535540D01*
X1233423D01*
X1230884Y548236D02*
X1225805Y543158D01*
X1220727Y545697D02*
X1210570Y535540D01*
X1205492Y538079D02*
X1202953Y535540D01*
X1197874D01*
X1195335Y538079D01*
X1205492D02*
Y543158D01*
X1202953Y545697D01*
X1200413D01*
X1195335Y543158D01*
Y550775D01*
X1205492D01*
X1187718D02*
X1190257Y548236D01*
Y543158D01*
X1187718Y540618D01*
X1180100D01*
Y550775D02*
X1187718D01*
X1230884Y548236D02*
X1235962Y550775D01*
X1180100D02*
Y535540D01*
X1169932Y538079D02*
X1167393Y535540D01*
X1162314D01*
X1159775Y538079D01*
X1169932D02*
Y540618D01*
X1167393Y543158D01*
X1164853D01*
X1167393D01*
X1169932Y545697D01*
Y548236D01*
X1167393Y550775D01*
X1162314D01*
X1159775Y548236D01*
X1154697Y550775D02*
X1149618D01*
X1152158D01*
Y538079D01*
X1149618Y535540D01*
X1147079D01*
X1144540Y538079D01*
X1127776Y555262D02*
X1085255D01*
X1083126Y558511D02*
G03*
X1085255Y555262I23314J12952D01*
G01*
X1129754Y522729D02*
G03*
X1082839Y522199I-23314J-12952D01*
G01*
X1083126Y496825D02*
G03*
X1085255Y493576I23314J12952D01*
G01*
X1085255Y493576D02*
X1127776D01*
X1127776Y493775D02*
G03*
X1130041Y497356I-21336J16002D01*
G01*
X1129754Y461044D02*
G03*
X1082839Y460513I-23314J-12952D01*
G01*
X1083126Y435139D02*
G03*
X1085255Y431891I23314J12952D01*
G01*
X1085255Y431890D02*
X1127776D01*
X1127776Y432089D02*
G03*
X1130041Y435670I-21336J16002D01*
G01*
X1063998Y510031D02*
X1061459Y507492D01*
X1056380D01*
X1053841Y510031D01*
X1063998D02*
Y515109D01*
X1061459Y517649D01*
X1058919D01*
X1053841Y515109D01*
Y522727D01*
X1063998D01*
X1048763Y520188D02*
X1046224Y522727D01*
X1041145D01*
X1038606Y520188D01*
Y510031D01*
X1041145Y507492D01*
X1046224D01*
X1048763Y510031D01*
Y520188D01*
X1043684Y512570D02*
X1048763Y507492D01*
Y458466D02*
X1046224Y461005D01*
X1041145D01*
X1038606Y458466D01*
Y448309D01*
X1041145Y445770D01*
X1046224D01*
X1048763Y448309D01*
Y458466D01*
Y445770D02*
X1043684Y450848D01*
X1053841Y448309D02*
X1056380Y445770D01*
X1061459D01*
X1063998Y448309D01*
Y450848D01*
X1061459Y453387D01*
X1053841D01*
Y448309D01*
Y453387D02*
X1058919Y458466D01*
X1063998Y461005D01*
X1127776Y555461D02*
G03*
X1130041Y559041I-21336J16002D01*
G01*
X1129754Y584415D02*
G03*
X1082839Y583884I-23314J-12952D01*
G01*
X1127776Y616948D02*
X1085255D01*
X1083126Y620196D02*
G03*
X1085255Y616948I23314J12952D01*
G01*
X1127776Y617146D02*
G03*
X1130041Y620727I-21336J16002D01*
G01*
X1129754Y646101D02*
G03*
X1082839Y645570I-23314J-12952D01*
G01*
X1061459Y646171D02*
X1063998Y643632D01*
Y641093D01*
X1061459Y638554D01*
X1058919D01*
X1061459D01*
X1063998Y636014D01*
Y633475D01*
X1061459Y630936D01*
X1056380D01*
X1053841Y633475D01*
Y643632D02*
X1056380Y646171D01*
X1061459D01*
X1085255Y678633D02*
X1127776D01*
X1127776Y678832D02*
G03*
X1130041Y682413I-21336J16002D01*
G01*
X1149618Y670155D02*
X1152158D01*
Y657459D01*
X1149618Y654920D01*
X1147079D01*
X1144540Y657459D01*
X1149618Y670155D02*
X1154697D01*
X1162314D02*
X1159775Y667616D01*
X1162314Y670155D02*
X1167393D01*
X1169932Y667616D01*
Y665077D01*
X1159775Y654920D01*
X1169932D01*
X1180100D02*
Y670155D01*
X1187718D01*
X1190257Y667616D01*
Y662538D01*
X1187718Y659998D01*
X1180100D01*
X1195335Y657459D02*
X1197874Y654920D01*
X1202953D01*
X1205492Y657459D01*
Y659998D01*
X1202953Y662538D01*
X1200413D01*
X1202953D01*
X1205492Y665077D01*
Y667616D01*
X1202953Y670155D01*
X1197874D01*
X1195335Y667616D01*
X1210570Y654920D02*
X1220727Y665077D01*
X1225805Y662538D02*
X1235962D01*
X1233423Y654920D02*
Y670155D01*
X1225805Y662538D01*
X1223266Y776840D02*
X1233423Y786997D01*
Y789536D01*
X1230884Y792075D01*
X1225805D01*
X1223266Y789536D01*
X1218188Y786997D02*
X1208031Y776840D01*
X1200413D02*
X1197874D01*
Y792075D01*
X1195335Y789536D01*
X1190257D02*
Y784457D01*
X1187718Y781918D01*
X1180100D01*
Y792075D02*
X1187718D01*
X1190257Y789536D01*
X1195335Y776840D02*
X1200413D01*
X1223266D02*
X1233423D01*
X1180100Y792075D02*
Y776840D01*
X1165091Y776986D02*
X1162552D01*
Y792221D01*
X1160013Y789682D01*
Y776986D02*
X1165091D01*
X1154935Y792221D02*
X1149856D01*
X1152395D01*
Y779525D01*
X1149856Y776986D01*
X1147317D01*
X1144778Y779525D01*
X1129754Y769472D02*
G03*
X1082839Y768941I-23314J-12952D01*
G01*
X1083126Y743568D02*
G03*
X1085255Y740319I23314J12952D01*
G01*
X1085255Y740319D02*
X1127776D01*
X1127776Y740518D02*
G03*
X1130041Y744099I-21336J16002D01*
G01*
X1129754Y707786D02*
G03*
X1082839Y707256I-23314J-12952D01*
G01*
X1083126Y681882D02*
G03*
X1085255Y678633I23314J12952D01*
G01*
X1063998Y702815D02*
Y705354D01*
X1061459Y707893D01*
X1056380D01*
X1053841Y705354D01*
X1063998Y702815D02*
X1053841Y692658D01*
X1063998D01*
X1048763Y705354D02*
X1046224Y707893D01*
X1041145D01*
X1038606Y705354D01*
Y695197D01*
X1041145Y692658D01*
X1046224D01*
X1048763Y695197D01*
Y705354D01*
Y692658D02*
X1043684Y697736D01*
X1041145Y646171D02*
X1038606Y643632D01*
Y633475D01*
X1041145Y630936D01*
X1046224D01*
X1048763Y633475D01*
Y643632D01*
X1046224Y646171D01*
X1041145D01*
X1043684Y636014D02*
X1048763Y630936D01*
Y581910D02*
X1046224Y584449D01*
X1041145D01*
X1038606Y581910D01*
Y571753D01*
X1041145Y569214D01*
X1046224D01*
X1048763Y571753D01*
Y581910D01*
Y569214D02*
X1043684Y574292D01*
X1053841Y576832D02*
X1063998D01*
X1061459Y569214D02*
Y584449D01*
X1053841Y576832D01*
X1053843Y754380D02*
X1048764Y759458D01*
X1043686Y756919D02*
X1046225Y754380D01*
X1051303D01*
X1053843Y756919D01*
Y767076D01*
X1051303Y769615D01*
X1046225D01*
X1043686Y767076D01*
Y756919D01*
X1058921Y754380D02*
X1063999D01*
X1061460D01*
Y769615D01*
X1058921Y767076D01*
X1058170Y822560D02*
X1055631Y825099D01*
X1058170Y822560D02*
X1063249D01*
X1065788Y825099D01*
Y827638D01*
X1063249Y830178D01*
X1060709D01*
X1063249D01*
X1065788Y832717D01*
Y835256D01*
X1063249Y837795D01*
X1058170D01*
X1055631Y835256D01*
X1076212Y870366D02*
G03*
X1079461Y872495I-12952J23314D01*
G01*
X1079461Y872495D02*
Y915016D01*
X1079262Y915016D02*
G03*
X1075682Y917281I-16002J-21336D01*
G01*
X1075170Y938529D02*
X1072630Y935990D01*
X1067552D01*
X1065013Y938529D01*
X1057395Y935990D02*
X1054856D01*
Y951225D01*
X1052317Y948686D01*
X1065013D02*
X1067552Y951225D01*
X1072630D01*
X1075170Y948686D01*
Y946147D01*
X1072630Y943607D01*
X1070091D01*
X1072630D01*
X1075170Y941068D01*
Y938529D01*
X1057395Y935990D02*
X1052317D01*
X1050308Y916994D02*
G03*
X1050838Y870079I12952J-23314D01*
G01*
X1045474Y837795D02*
X1042935Y835256D01*
X1037857D02*
Y830178D01*
X1035318Y827638D01*
X1027700D01*
Y822560D02*
Y837795D01*
X1035318D01*
X1037857Y835256D01*
X1045474Y837795D02*
Y822560D01*
X1048013D01*
X1042935D01*
X1037857D02*
X1032778Y827638D01*
X1022460Y800300D02*
Y875300D01*
X1002460D01*
Y800300D01*
X1012460D01*
X1022460D01*
X1012460D02*
Y787800D01*
Y875300D02*
Y887800D01*
X1037082Y938529D02*
X1039621Y935990D01*
X1044699D01*
X1047239Y938529D01*
Y948686D01*
X1044699Y951225D01*
X1039621D01*
X1037082Y948686D01*
Y938529D01*
X1042160Y941068D02*
X1047239Y935990D01*
X1114059Y934315D02*
X1111520Y931776D01*
Y921619D01*
X1114059Y919080D01*
X1119137D01*
X1121677Y921619D01*
Y926697D01*
X1116598D01*
X1114059Y934315D02*
X1119137D01*
X1121677Y931776D01*
X1126755Y934315D02*
X1136912Y919080D01*
Y934315D01*
X1141990D02*
Y919080D01*
X1149608D01*
X1152147Y921619D01*
Y931776D01*
X1149608Y934315D01*
X1141990D01*
X1139453Y957180D02*
X1144532Y962258D01*
Y972415D01*
X1134375D02*
Y962258D01*
X1139453Y957180D01*
X1167637Y995426D02*
X1165098Y997965D01*
X1172716D02*
X1170176Y995426D01*
X1167637D01*
X1182872D02*
X1180333Y997965D01*
Y1003044D02*
X1185411Y1005583D01*
X1187951D01*
X1190490Y1003044D01*
Y997965D01*
X1187951Y995426D01*
X1182872D01*
X1190490Y1010661D02*
X1180333D01*
Y1003044D01*
X1175255Y1010661D02*
X1170176D01*
X1172716D01*
Y997965D01*
X1129297Y972415D02*
X1119140D01*
Y964798D01*
X1124218Y967337D01*
X1126758D01*
X1129297Y964798D01*
Y959719D01*
X1126758Y957180D01*
X1121679D01*
X1119140Y959719D01*
X1126755Y934315D02*
Y919080D01*
X1165098Y888233D02*
X1172716D01*
X1175255Y885694D01*
Y880615D01*
X1172716Y878076D01*
X1165098D01*
Y872998D02*
Y888233D01*
X1180333D02*
Y872998D01*
X1185411Y878076D01*
X1190490Y872998D01*
Y888233D01*
X1195568D02*
X1203186D01*
X1205725Y885694D01*
Y880615D01*
X1203186Y878076D01*
X1195568D01*
Y872998D02*
Y888233D01*
X1200647Y878076D02*
X1205725Y872998D01*
X1210803Y870459D02*
X1220960D01*
X1226038Y872998D02*
Y888233D01*
X1233656D01*
X1236195Y885694D01*
Y880615D01*
X1233656Y878076D01*
X1226038D01*
X1231117D02*
X1236195Y872998D01*
X1077431Y1012693D02*
X1072353D01*
Y997458D01*
X1062196Y999997D02*
X1059657Y997458D01*
X1054578D01*
X1052039Y999997D01*
Y1005076D02*
X1057118Y1007615D01*
X1059657D01*
X1062196Y1005076D01*
Y999997D01*
Y1012693D02*
X1052039D01*
Y1005076D01*
X1067274Y1012693D02*
X1077431D01*
X1044422D02*
X1046961Y1010154D01*
Y999997D01*
X1044422Y997458D01*
X1039343D01*
X1036804Y999997D01*
Y1010154D01*
X1039343Y1012693D01*
X1044422D01*
X1029187D02*
X1031726Y1010154D01*
Y1007615D01*
X1029187Y1005076D01*
X1031726Y1002536D01*
Y999997D01*
X1029187Y997458D01*
X1024108D01*
X1021569Y999997D01*
Y1002536D01*
X1024108Y1005076D01*
X1021569Y1007615D01*
Y1010154D01*
X1024108Y1012693D01*
X1029187D01*
Y1005076D02*
X1024108D01*
X1016491Y1010154D02*
X1006334Y999997D01*
Y997458D01*
X998717D02*
X996177D01*
Y1012693D01*
X993638Y1010154D01*
X988560Y1007615D02*
Y997458D01*
Y1005076D01*
X978403D01*
Y1007615D02*
X983481Y1012693D01*
X988560Y1007615D01*
X978403D02*
Y997458D01*
X970786D02*
X973325Y999997D01*
Y1002536D01*
X970786Y1005076D01*
X963168D01*
X970786D01*
X973325Y1007615D01*
Y1010154D01*
X970786Y1012693D01*
X963168D01*
Y997458D01*
X970786D01*
X993638D02*
X998717D01*
X1006334Y1012693D02*
X1016491D01*
Y1010154D01*
X1003795Y1083817D02*
X1001256Y1081278D01*
X996177D01*
X993638Y1083817D01*
Y1093974D01*
X996177Y1096513D01*
X1001256D01*
X1003795Y1093974D01*
Y1083817D01*
X988560D02*
X986021Y1081278D01*
X980942D01*
X978403Y1083817D01*
Y1093974D01*
X980942Y1096513D01*
X986021D01*
X988560Y1093974D01*
Y1083817D01*
X973325D02*
Y1093974D01*
X970786Y1096513D01*
X965707D01*
X963168Y1093974D01*
Y1083817D01*
X965707Y1081278D01*
X970786D01*
X973325Y1083817D01*
Y1081278D02*
X968246Y1086356D01*
X908292Y1013057D02*
Y1002900D01*
Y1010518D01*
X898135D01*
Y1013057D02*
X903214Y1018135D01*
X908292Y1013057D01*
X898135D02*
Y1002900D01*
X890518D02*
X893057Y1005439D01*
X890518Y1007978D01*
X885440D01*
X882900Y1010518D01*
X885440Y1013057D01*
X893057D01*
X890518Y1002900D02*
X882900D01*
X875283D02*
X877822Y1005439D01*
X875283Y1007978D01*
X870204D01*
X867665Y1010518D01*
X870204Y1013057D01*
X877822D01*
X875289Y1020680D02*
X872750D01*
Y1035915D01*
X870211Y1033376D01*
Y1020680D02*
X875289D01*
X862593D02*
X860054D01*
Y1035915D01*
X857515Y1033376D01*
X852437Y1035915D02*
X847358D01*
X849898D01*
Y1023219D01*
X847358Y1020680D01*
X844819D01*
X842280Y1023219D01*
X842273Y1013057D02*
X844813D01*
X842273D02*
X839734Y1010518D01*
X837195Y1007978D01*
Y1002900D01*
Y1013057D01*
X852430Y1010518D02*
X854969Y1013057D01*
X860048D01*
X862587Y1010518D01*
Y1007978D01*
X852430D01*
Y1005439D02*
Y1010518D01*
Y1005439D02*
X854969Y1002900D01*
X860048D01*
X857515Y1020680D02*
X862593D01*
X867665Y1002900D02*
X875283D01*
X832117Y1010518D02*
X829577Y1007978D01*
X821960D01*
Y1002900D02*
Y1018135D01*
X829577D01*
X832117Y1015596D01*
Y1010518D01*
X776218Y921507D02*
X773679Y918968D01*
X776218Y921507D02*
X781297D01*
X783836Y918968D01*
Y916429D01*
X773679Y906272D01*
X783836D01*
X801640Y908920D02*
Y919077D01*
X806718Y924155D01*
X811797Y919077D01*
Y908920D01*
Y916537D01*
X801640D01*
X821953Y908920D02*
Y924155D01*
X827032D01*
X816875D01*
X832110Y919077D02*
X834649D01*
X837188Y916537D01*
Y908920D01*
Y916537D01*
X839728Y919077D01*
X842267Y916537D01*
Y908920D01*
X849884D02*
X847345Y911459D01*
Y916537D01*
X849884Y919077D01*
X854963D01*
X857502Y916537D01*
Y913998D01*
X847345D01*
X849884Y908920D02*
X854963D01*
X832090Y897490D02*
G03*
X852410Y897490I10160J0D01*
G01*
X867659Y903842D02*
X870198D01*
X872737Y906381D01*
Y919077D01*
X865119D01*
X862580Y916537D01*
Y911459D01*
X865119Y908920D01*
X872737D01*
X880355D02*
X877815Y911459D01*
X880355Y913998D01*
X887972D01*
Y908920D02*
X880355D01*
X887972D02*
Y916537D01*
X885433Y919077D01*
X880355D01*
X893050Y911459D02*
X895590Y908920D01*
X900668D01*
X903207Y911459D01*
Y913998D01*
X900668Y916537D01*
X898129D01*
X900668D01*
X903207Y919077D01*
Y921616D01*
X900668Y924155D01*
X895590D01*
X893050Y921616D01*
X908286D02*
X910825Y924155D01*
X915903D01*
X918442Y921616D01*
Y919077D01*
X908286Y908920D01*
X918442D01*
X832110Y919077D02*
Y908920D01*
X787422Y882250D02*
G03*
X787422Y882250I-3592J0D01*
G01*
X766061Y906272D02*
X768601Y908811D01*
Y921507D01*
X758444D02*
Y908811D01*
X760983Y906272D01*
X766061D01*
X684268Y833115D02*
X679189Y830576D01*
X674111Y825498D01*
Y820419D01*
X676650Y817880D01*
X681729D01*
X684268Y820419D01*
Y822958D01*
X681729Y825498D01*
X674111D01*
X692419Y802235D02*
X689880Y799696D01*
Y789539D01*
X692419Y787000D01*
X697497D01*
X700037Y789539D01*
Y794617D01*
X694958D01*
X692419Y802235D02*
X697497D01*
X700037Y799696D01*
X705115Y802235D02*
X715272Y787000D01*
Y802235D01*
X720350D02*
Y787000D01*
X727968D01*
X730507Y789539D01*
Y799696D01*
X727968Y802235D01*
X720350D01*
X705115D02*
Y787000D01*
Y776835D02*
Y766678D01*
X710193Y761600D01*
X715272Y766678D01*
Y776835D01*
X700037D02*
X689880D01*
Y769218D01*
X694958Y771757D01*
X697497D01*
X700037Y769218D01*
Y764139D01*
X697497Y761600D01*
X692419D01*
X689880Y764139D01*
X692420Y753975D02*
X697498Y748897D01*
X702577Y753975D01*
Y738740D01*
X707655Y741279D02*
X710194Y738740D01*
X715273D01*
X717812Y741279D01*
Y751436D01*
X715273Y753975D01*
X710194D01*
X707655Y751436D01*
Y741279D01*
Y728575D02*
X712733D01*
X710194D01*
Y713340D01*
X707655D01*
X712733D01*
X702577D02*
Y728575D01*
X697498Y723497D01*
X692420Y728575D01*
Y713340D01*
X694959Y703175D02*
X692420Y700636D01*
Y698097D01*
X694959Y695557D01*
X700038D01*
X702577Y693018D01*
Y690479D01*
X700038Y687940D01*
X694959D01*
X692420Y690479D01*
Y677775D02*
X700038D01*
X702577Y675236D01*
Y670157D01*
X700038Y667618D01*
X692420D01*
Y662540D02*
Y677775D01*
X697498Y667618D02*
X702577Y662540D01*
X710194D02*
X707655Y665079D01*
X710194Y662540D02*
X715273D01*
X717812Y665079D01*
Y667618D01*
X715273Y670157D01*
X710194D01*
X707655Y672697D01*
Y675236D01*
X710194Y677775D01*
X715273D01*
X717812Y675236D01*
X722890Y677775D02*
X733047D01*
X727969D01*
Y662540D01*
X733047Y687940D02*
X725429Y695557D01*
X733047Y703175D01*
X722890Y693018D01*
Y687940D01*
Y703175D01*
X717812Y700636D02*
X715273Y703175D01*
X710194D01*
X707655Y700636D01*
Y690479D01*
X710194Y687940D01*
X715273D01*
X717812Y690479D01*
X727969Y713340D02*
X722890D01*
X720351Y715879D01*
Y723497D02*
X722890Y720957D01*
X727969D01*
X730508Y718418D01*
Y715879D01*
X727969Y713340D01*
X735586Y715879D02*
X738125Y713340D01*
X743204D01*
X745743Y715879D01*
Y726036D01*
X743204Y728575D01*
X738125D01*
X735586Y726036D01*
Y715879D01*
X730508Y726036D02*
X727969Y728575D01*
X722890D01*
X720351Y726036D01*
Y723497D01*
X702577Y700636D02*
X700038Y703175D01*
X694959D01*
X725429Y738740D02*
X722890Y741279D01*
X725429Y738740D02*
X730508D01*
X733047Y741279D01*
Y743818D01*
X730508Y746357D01*
X725429D01*
X722890Y748897D01*
Y751436D01*
X725429Y753975D01*
X730508D01*
X733047Y751436D01*
X738125Y738740D02*
X743204D01*
X740664D02*
X738125D01*
X740664D02*
Y753975D01*
X743204D01*
X738125D01*
X692420D02*
Y738740D01*
X636543Y781887D02*
X639082Y779348D01*
Y771730D01*
Y766652D02*
X641621D01*
X644160Y764113D01*
Y759035D01*
X641621Y756495D01*
X634003D02*
X636543Y759035D01*
Y764113D01*
X639082Y766652D01*
X631464D02*
X628925Y764113D01*
Y759035D01*
X631464Y756495D01*
X634003D01*
X628925Y771730D02*
Y779348D01*
X631464Y781887D01*
X636543D01*
X644160Y771730D02*
X628925D01*
X634003Y751417D02*
X644160D01*
X636543D01*
Y741260D01*
X634003D02*
X628925Y746339D01*
X634003Y751417D01*
Y741260D02*
X644160D01*
X636543Y736182D02*
Y726025D01*
X639082Y720947D02*
X636543Y718408D01*
Y710790D01*
Y718408D01*
X634003Y720947D01*
X631464D01*
X628925Y718408D01*
Y710790D01*
X644160D01*
Y718408D01*
X641621Y720947D01*
X639082D01*
Y705712D02*
X641621D01*
X644160Y703173D01*
Y698094D01*
X641621Y695555D01*
Y690477D02*
X628925D01*
Y698094D02*
X631464Y695555D01*
X634003D01*
X636543Y698094D01*
Y703173D01*
X639082Y705712D01*
X631464D02*
X628925Y703173D01*
Y698094D01*
Y680320D02*
X641621D01*
X644160Y682859D01*
Y687937D01*
X641621Y690477D01*
X694960Y585540D02*
Y573040D01*
X727980Y593360D02*
Y605860D01*
X666494Y820419D02*
X663954Y817880D01*
X661415D01*
X658876Y820419D01*
X666494D02*
Y833115D01*
X663954D01*
X669033D01*
X527308Y888600D02*
X517151D01*
X527308Y898757D01*
Y901296D01*
X524768Y903835D01*
X519690D01*
X517151Y901296D01*
X514611Y883515D02*
Y873358D01*
X519689Y868280D01*
X524768Y873358D01*
Y883515D01*
X509533Y888600D02*
X506994D01*
Y903835D01*
X504455Y901296D01*
X499377D02*
Y896217D01*
X496838Y893678D01*
X489220D01*
Y888600D02*
Y903835D01*
X496838D01*
X499377Y901296D01*
X504455Y888600D02*
X509533D01*
X509533Y880976D02*
X506993Y883515D01*
X501915D01*
X499376Y880976D01*
X509533D02*
Y878437D01*
X499376Y868280D01*
X509533D01*
X491758D02*
X489219D01*
Y883515D01*
X486680Y880976D01*
Y868280D02*
X491758D01*
X453637Y804775D02*
Y789540D01*
X443480D02*
Y804775D01*
X448559Y799697D01*
X453637Y804775D01*
X435863Y799697D02*
X438402Y797158D01*
Y794618D01*
X428245D01*
Y792079D02*
Y797158D01*
X430784Y799697D01*
X435863D01*
Y789540D02*
X430784D01*
X428245Y792079D01*
X423167Y789540D02*
X415549D01*
X413010Y792079D01*
Y797158D01*
X415549Y799697D01*
X423167D01*
Y804775D02*
Y789540D01*
X405393D02*
X407932Y792079D01*
Y797158D01*
X405393Y799697D01*
X400314D01*
X397775Y797158D01*
Y792079D01*
X400314Y789540D01*
X405393D01*
X392697D02*
Y804775D01*
X382540D02*
X392697Y789540D01*
X382540D02*
Y804775D01*
X368802Y804159D02*
X366263Y801620D01*
X368802Y804159D02*
Y788924D01*
X371341D01*
X366263D01*
X358646D02*
X361185Y791463D01*
Y804159D01*
X351028D02*
Y791463D01*
X353567Y788924D01*
X358646D01*
X458715Y792079D02*
X461255Y789540D01*
X468872D01*
X473950Y792079D02*
X476490Y789540D01*
X484107D01*
Y799697D01*
X473950D02*
Y792079D01*
X468872Y799697D02*
X461255D01*
X458715Y797158D01*
Y792079D01*
X354600Y939400D02*
Y947018D01*
X352061Y949557D01*
X341904D01*
X339365Y947018D01*
Y939400D01*
X354600D01*
X352061Y954635D02*
X354600Y957174D01*
Y962253D01*
X352061Y964792D01*
Y954635D02*
X341904D01*
X339365Y957174D01*
Y962253D01*
X341904Y964792D01*
X352061Y985105D02*
X354600Y987644D01*
Y990184D01*
X352061Y992723D01*
X339365D01*
Y990184D01*
Y995262D01*
X352061Y1000340D02*
X349522Y1002879D01*
Y1010497D01*
X346982D02*
X354600D01*
Y1002879D01*
X352061Y1000340D01*
Y1015575D02*
X354600Y1018114D01*
Y1025732D01*
Y1030810D02*
X339365D01*
X344443Y1025732D02*
Y1018114D01*
X346982Y1015575D01*
X352061D01*
X354600Y1038428D02*
X349522Y1030810D01*
X344443Y1038428D01*
Y1007958D02*
X346982Y1010497D01*
X344443Y1007958D02*
Y1002879D01*
X376934Y1088898D02*
X374395D01*
X371856Y1091437D01*
X379473D02*
X376934Y1088898D01*
X379473Y1091437D02*
Y1104133D01*
X376934D01*
X382013D01*
X389630D02*
X394709D01*
X397248Y1101594D01*
Y1091437D01*
X394709Y1088898D01*
X389630D01*
X387091Y1091437D01*
Y1101594D01*
X389630Y1104133D01*
X491760Y1020675D02*
X499378D01*
X501917Y1018136D01*
Y1013057D01*
X499378Y1010518D01*
X491760D01*
Y1005440D02*
Y1020675D01*
X509534D02*
X506995Y1018136D01*
X509534Y1020675D02*
Y1005440D01*
X512073D01*
X506995D01*
X519691D02*
X524769D01*
X522230D01*
Y1020675D01*
X519691Y1018136D01*
X519690Y1028300D02*
X527308D01*
X529847Y1030839D01*
Y1040996D01*
X527308Y1043535D01*
X519690D01*
Y1028300D01*
X514612D02*
Y1043535D01*
Y1028300D02*
X504455Y1043535D01*
Y1028300D01*
X496838D02*
X499377Y1030839D01*
Y1035918D01*
X494298D01*
X491759Y1043535D02*
X489220Y1040996D01*
Y1030839D01*
X491759Y1028300D01*
X496838D01*
X499377Y1040996D02*
X496838Y1043535D01*
X491759D01*
X575579Y995275D02*
X573040Y992736D01*
Y982579D01*
X575579Y980040D01*
X580658D01*
X583197Y982579D01*
Y992736D01*
X580658Y995275D01*
X575579D01*
X578118Y985118D02*
X583197Y980040D01*
X590814D02*
X588275Y982579D01*
Y992736D01*
X590814Y995275D01*
X595893D01*
X598432Y992736D01*
Y982579D01*
X595893Y980040D01*
X590814D01*
X598432Y1002900D02*
Y1010518D01*
X588275D01*
Y1013057D02*
X593353Y1018135D01*
X598432Y1013057D01*
Y1002900D01*
X603510D02*
X608588D01*
X606049D01*
Y1018135D01*
X603510Y1015596D01*
X616206Y1018135D02*
X626363D01*
Y1015596D01*
X616206Y1005439D01*
Y1002900D01*
X633980D02*
X631441Y1005439D01*
Y1007978D01*
X633980Y1010518D01*
X631441Y1013057D01*
Y1015596D01*
X633980Y1018135D01*
X639059D01*
X641598Y1015596D01*
Y1013057D01*
X639059Y1010518D01*
X641598Y1007978D01*
Y1005439D01*
X639059Y1002900D01*
X633980D01*
Y1010518D02*
X639059D01*
X646676Y1015596D02*
X649215Y1018135D01*
X654294D01*
X656833Y1015596D01*
Y1005439D01*
X654294Y1002900D01*
X649215D01*
X646676Y1005439D01*
Y1015596D01*
X661911Y1018135D02*
Y1010518D01*
X666990Y1013057D01*
X669529D01*
X672068Y1010518D01*
Y1005439D01*
X669529Y1002900D01*
X664450D01*
X661911Y1005439D01*
Y1018135D02*
X672068D01*
X677146D02*
X687303D01*
X682225D01*
Y1002900D01*
X588275D02*
Y1013057D01*
X583197D02*
Y1015596D01*
X580658Y1018135D01*
X573040D01*
Y1002900D01*
X580658D01*
X583197Y1005439D01*
Y1007978D01*
X580658Y1010518D01*
X573040D01*
X580658D01*
X583197Y1013057D01*
X702580Y301855D02*
X710198D01*
X712737Y299316D01*
Y294237D01*
X710198Y291698D01*
X702580D01*
Y286620D02*
Y301855D01*
X717815Y296777D02*
Y286620D01*
Y291698D01*
X720354Y294237D01*
X722893Y296777D01*
X725433D01*
X720354Y278995D02*
X717815Y276456D01*
X720354Y278995D02*
Y263760D01*
X722893D01*
X717815D01*
X710198Y266299D02*
X707658Y263760D01*
X705119D01*
X702580Y266299D01*
X710198D02*
Y278995D01*
X707658D01*
X712737D01*
D31*
X640350Y926700D02*
X536210D01*
Y974960D01*
X640350D01*
X640350Y926700D01*
X962930Y1023220D02*
Y1071480D01*
X1067070D01*
X1067070Y1023220D01*
X962930D01*
D32*
X476520Y934320D02*
Y1080370D01*
X378730D01*
Y996550D01*
Y949560D02*
Y934320D01*
X405400D01*
X456200D02*
X476520D01*
D33*
X626380Y383140D02*
X677180D01*
Y408540D01*
X626380D01*
Y383140D01*
Y413620D02*
X677180D01*
Y439020D01*
X626380D01*
Y413620D01*
X682260Y652380D02*
X682260Y809860D01*
X656860D01*
X656860Y652380D01*
X682260D01*
X923560Y309480D02*
X1030240D01*
Y284080D01*
X923560D01*
Y309480D01*
M02*
