G04 Layer_Color=16711935*
%FSLAX44Y44*%
%MOMM*%
G71*
G01*
G75*
%ADD17C,3.0000*%
%ADD34R,1.0922X2.1082*%
%ADD35R,2.1082X1.0922*%
%ADD36C,1.7032*%
%ADD37C,2.0482*%
%ADD38R,2.0482X2.0482*%
%ADD39C,1.8032*%
%ADD40R,1.8032X1.8032*%
%ADD41R,1.3622X1.3622*%
%ADD42C,1.3622*%
%ADD43C,6.2032*%
%ADD44C,1.8796*%
%ADD45C,2.7032*%
%ADD46O,2.4032X5.0032*%
%ADD47O,5.0032X2.4032*%
D17*
X733060Y240900D02*
D03*
X773700D02*
D03*
X837200D02*
D03*
X877840D02*
D03*
X1177560Y345040D02*
D03*
Y385680D02*
D03*
Y464420D02*
D03*
Y505060D02*
D03*
Y583800D02*
D03*
Y624440D02*
D03*
Y703180D02*
D03*
Y743820D02*
D03*
Y921620D02*
D03*
Y962260D02*
D03*
X885460Y1068940D02*
D03*
X844820D02*
D03*
D34*
X409083Y859390D02*
D03*
X429403D02*
D03*
Y897490D02*
D03*
X409083D02*
D03*
X593360Y878440D02*
D03*
X613680D02*
D03*
Y911460D02*
D03*
X593360D02*
D03*
X888000Y911460D02*
D03*
X908320D02*
D03*
X981980Y962260D02*
D03*
X1002300D02*
D03*
X1030240D02*
D03*
X1050560D02*
D03*
Y997820D02*
D03*
X1030240D02*
D03*
X1002300D02*
D03*
X981980D02*
D03*
X1002300Y720960D02*
D03*
X1022620D02*
D03*
Y682860D02*
D03*
X1002300D02*
D03*
Y606660D02*
D03*
X1022620D02*
D03*
Y571100D02*
D03*
X1002300D02*
D03*
Y535380D02*
D03*
X1022620D02*
D03*
Y499980D02*
D03*
X1002300D02*
D03*
Y464260D02*
D03*
X1022620D02*
D03*
Y428860D02*
D03*
X1002300D02*
D03*
X890540Y439020D02*
D03*
X870220D02*
D03*
Y390760D02*
D03*
X890540D02*
D03*
D35*
X413020Y360280D02*
D03*
X448580D02*
D03*
Y380600D02*
D03*
X413020D02*
D03*
X727980Y647300D02*
D03*
Y667620D02*
D03*
X834660Y642220D02*
D03*
Y621900D02*
D03*
X870220D02*
D03*
Y642220D02*
D03*
X961660D02*
D03*
Y662540D02*
D03*
X1142000Y865740D02*
D03*
Y886060D02*
D03*
X1108980D02*
D03*
Y865740D02*
D03*
X1131840Y962260D02*
D03*
Y982580D02*
D03*
X1096280Y1033380D02*
D03*
Y1013060D02*
D03*
X1089023Y982580D02*
D03*
Y962260D02*
D03*
X766080Y997820D02*
D03*
Y1018140D02*
D03*
X613680Y814940D02*
D03*
Y794620D02*
D03*
D36*
X639080Y395840D02*
D03*
X664480D02*
D03*
Y426320D02*
D03*
X639080D02*
D03*
X694960Y470540D02*
D03*
X727980Y490860D02*
D03*
X694960Y600540D02*
D03*
X727980Y620860D02*
D03*
X669560Y718420D02*
D03*
Y693020D02*
D03*
Y667620D02*
D03*
Y743820D02*
D03*
Y769220D02*
D03*
Y794620D02*
D03*
X1012460Y772800D02*
D03*
Y902800D02*
D03*
X938800Y296780D02*
D03*
X964200D02*
D03*
X989600D02*
D03*
X1015000D02*
D03*
D37*
X613680Y941940D02*
D03*
X588280D02*
D03*
X1015000Y1038460D02*
D03*
X1040400D02*
D03*
D38*
X562880Y941940D02*
D03*
X989600Y1038460D02*
D03*
D39*
X362220Y357740D02*
D03*
X362220Y383140D02*
D03*
X362220Y408540D02*
D03*
Y433940D02*
D03*
Y459340D02*
D03*
X362220Y484740D02*
D03*
X362220Y510140D02*
D03*
Y535540D02*
D03*
Y560940D02*
D03*
Y586340D02*
D03*
Y611740D02*
D03*
Y637140D02*
D03*
Y662540D02*
D03*
Y687940D02*
D03*
X590820Y459340D02*
D03*
Y433940D02*
D03*
Y408540D02*
D03*
X590820Y383140D02*
D03*
X590820Y357740D02*
D03*
X590820Y484740D02*
D03*
X590820Y510140D02*
D03*
Y535540D02*
D03*
Y560940D02*
D03*
Y586340D02*
D03*
Y611740D02*
D03*
Y637140D02*
D03*
Y662540D02*
D03*
Y687940D02*
D03*
Y713340D02*
D03*
D40*
X362220Y713340D02*
D03*
D41*
X766050Y872090D02*
D03*
D42*
X766050Y389490D02*
D03*
Y414890D02*
D03*
Y440290D02*
D03*
Y465690D02*
D03*
Y491090D02*
D03*
Y516490D02*
D03*
X766050Y541890D02*
D03*
X766050Y567290D02*
D03*
Y592690D02*
D03*
Y618090D02*
D03*
Y643490D02*
D03*
Y668890D02*
D03*
Y694290D02*
D03*
Y719690D02*
D03*
Y745090D02*
D03*
X766050Y770490D02*
D03*
X766050Y795890D02*
D03*
Y821290D02*
D03*
Y846690D02*
D03*
X921630Y694290D02*
D03*
Y668890D02*
D03*
Y643490D02*
D03*
Y618090D02*
D03*
Y592690D02*
D03*
Y567290D02*
D03*
Y541890D02*
D03*
Y516490D02*
D03*
Y491090D02*
D03*
Y465690D02*
D03*
Y440290D02*
D03*
Y414890D02*
D03*
Y389490D02*
D03*
Y719690D02*
D03*
Y745090D02*
D03*
Y770490D02*
D03*
Y795890D02*
D03*
Y821290D02*
D03*
Y846690D02*
D03*
Y872090D02*
D03*
D43*
X550180Y225660D02*
D03*
X1154700D02*
D03*
Y1094340D02*
D03*
X550180D02*
D03*
D44*
X1063260Y868280D02*
D03*
Y893680D02*
D03*
Y919080D02*
D03*
X1081040Y756520D02*
D03*
X1106440D02*
D03*
X1131840D02*
D03*
X1081040Y694834D02*
D03*
X1106440D02*
D03*
X1131840D02*
D03*
X1106440Y633148D02*
D03*
X1131840D02*
D03*
X1106440Y571462D02*
D03*
X1131840D02*
D03*
X1081040Y633148D02*
D03*
Y571462D02*
D03*
Y509777D02*
D03*
X1106440D02*
D03*
X1131840D02*
D03*
X1106440Y448091D02*
D03*
X1131840D02*
D03*
X1106440Y386406D02*
D03*
X1131840D02*
D03*
X1106440Y324720D02*
D03*
X1131840D02*
D03*
X1081040Y386406D02*
D03*
Y324720D02*
D03*
Y448091D02*
D03*
D45*
X509540Y929240D02*
D03*
X509540Y980040D02*
D03*
D46*
X381270Y972420D02*
D03*
D47*
X430800Y939400D02*
D03*
Y1000360D02*
D03*
M02*
